<?xml version="1.0" encoding="UTF-8" standalone="no"?>
<!-- Created with Inkscape (http://www.inkscape.org/) -->

<svg
   version="1.1"
   id="svg1"
   width="829.15997"
   height="46.560001"
   viewBox="0 0 829.15997 46.560001"
   sodipodi:docname="logo.pdf"
   xmlns:inkscape="http://www.inkscape.org/namespaces/inkscape"
   xmlns:sodipodi="http://sodipodi.sourceforge.net/DTD/sodipodi-0.dtd"
   xmlns="http://www.w3.org/2000/svg"
   xmlns:svg="http://www.w3.org/2000/svg">
  <defs
     id="defs1">
    <mask
       maskUnits="userSpaceOnUse"
       x="0"
       y="0"
       width="1"
       height="1"
       id="mask1"
       opacity="0.3">
      <path
         d="M 0,0 H 100 V 100 H 0 Z"
         transform="matrix(0.80017333,0,0,-0.80017333,15.633187,68.961907)"
         style="fill:url(#radialGradient4);stroke:none"
         opacity="1"
         id="path4"
         clip-path="url(#clipPath5)" />
    </mask>
    <radialGradient
       fx="50.000641"
       fy="50.000641"
       cx="50.000641"
       cy="50.000641"
       r="50.000641"
       gradientUnits="userSpaceOnUse"
       id="radialGradient4">
      <stop
         style="stop-opacity:1;stop-color:#ffffff"
         offset="0"
         id="stop1" />
      <stop
         style="stop-opacity:1;stop-color:#ffffff"
         offset="0.39999968"
         id="stop2" />
      <stop
         style="stop-opacity:1;stop-color:#000000"
         offset="0.5"
         id="stop3" />
      <stop
         style="stop-opacity:1;stop-color:#000000"
         offset="1"
         id="stop4" />
    </radialGradient>
    <clipPath
       clipPathUnits="userSpaceOnUse"
       id="clipPath5">
      <path
         d="M 0,0 H 100 V 100 H 0 Z"
         id="path5" />
    </clipPath>
    <mask
       maskUnits="userSpaceOnUse"
       x="0"
       y="0"
       width="1"
       height="1"
       id="mask10"
       opacity="0.3">
      <path
         d="M 0,0 H 100 V 100 H 0 Z"
         transform="matrix(0.80017333,0,0,-0.80017333,91.224653,68.961907)"
         style="fill:url(#radialGradient13);stroke:none"
         opacity="1"
         id="path13"
         clip-path="url(#clipPath14)" />
    </mask>
    <radialGradient
       fx="50.000641"
       fy="50.000641"
       cx="50.000641"
       cy="50.000641"
       r="50.000641"
       gradientUnits="userSpaceOnUse"
       id="radialGradient13">
      <stop
         style="stop-opacity:1;stop-color:#ffffff"
         offset="0"
         id="stop10" />
      <stop
         style="stop-opacity:1;stop-color:#ffffff"
         offset="0.39999968"
         id="stop11" />
      <stop
         style="stop-opacity:1;stop-color:#000000"
         offset="0.5"
         id="stop12" />
      <stop
         style="stop-opacity:1;stop-color:#000000"
         offset="1"
         id="stop13" />
    </radialGradient>
    <clipPath
       clipPathUnits="userSpaceOnUse"
       id="clipPath14">
      <path
         d="M 0,0 H 100 V 100 H 0 Z"
         id="path14" />
    </clipPath>
    <mask
       maskUnits="userSpaceOnUse"
       x="0"
       y="0"
       width="1"
       height="1"
       id="mask17"
       opacity="0.3">
      <path
         d="M 0,0 H 100 V 100 H 0 Z"
         transform="matrix(0.80017333,0,0,-0.80017333,166.81619,68.961907)"
         style="fill:url(#radialGradient20);stroke:none"
         opacity="1"
         id="path20"
         clip-path="url(#clipPath21)" />
    </mask>
    <radialGradient
       fx="50.000641"
       fy="50.000641"
       cx="50.000641"
       cy="50.000641"
       r="50.000641"
       gradientUnits="userSpaceOnUse"
       id="radialGradient20">
      <stop
         style="stop-opacity:1;stop-color:#ffffff"
         offset="0"
         id="stop17" />
      <stop
         style="stop-opacity:1;stop-color:#ffffff"
         offset="0.39999968"
         id="stop18" />
      <stop
         style="stop-opacity:1;stop-color:#000000"
         offset="0.5"
         id="stop19" />
      <stop
         style="stop-opacity:1;stop-color:#000000"
         offset="1"
         id="stop20" />
    </radialGradient>
    <clipPath
       clipPathUnits="userSpaceOnUse"
       id="clipPath21">
      <path
         d="M 0,0 H 100 V 100 H 0 Z"
         transform="translate(-4.1657641e-6)"
         id="path21" />
    </clipPath>
    <mask
       maskUnits="userSpaceOnUse"
       x="0"
       y="0"
       width="1"
       height="1"
       id="mask24"
       opacity="0.3">
      <path
         d="M 0,0 H 100 V 100 H 0 Z"
         transform="matrix(0.80017333,0,0,-0.80017333,242.40768,68.961907)"
         style="fill:url(#radialGradient27);stroke:none"
         opacity="1"
         id="path27"
         clip-path="url(#clipPath28)" />
    </mask>
    <radialGradient
       fx="50.000641"
       fy="50.000641"
       cx="50.000641"
       cy="50.000641"
       r="50.000641"
       gradientUnits="userSpaceOnUse"
       id="radialGradient27">
      <stop
         style="stop-opacity:1;stop-color:#ffffff"
         offset="0"
         id="stop24" />
      <stop
         style="stop-opacity:1;stop-color:#ffffff"
         offset="0.39999968"
         id="stop25" />
      <stop
         style="stop-opacity:1;stop-color:#000000"
         offset="0.5"
         id="stop26" />
      <stop
         style="stop-opacity:1;stop-color:#000000"
         offset="1"
         id="stop27" />
    </radialGradient>
    <clipPath
       clipPathUnits="userSpaceOnUse"
       id="clipPath28">
      <path
         d="M 0,0 H 100 V 100 H 0 Z"
         id="path28" />
    </clipPath>
    <mask
       maskUnits="userSpaceOnUse"
       x="0"
       y="0"
       width="1"
       height="1"
       id="mask31"
       opacity="0.3">
      <path
         d="M 0,0 H 100 V 100 H 0 Z"
         transform="matrix(0.80017333,0,0,-0.80017333,317.99921,68.961907)"
         style="fill:url(#radialGradient34);stroke:none"
         opacity="1"
         id="path34"
         clip-path="url(#clipPath35)" />
    </mask>
    <radialGradient
       fx="50.000641"
       fy="50.000641"
       cx="50.000641"
       cy="50.000641"
       r="50.000641"
       gradientUnits="userSpaceOnUse"
       id="radialGradient34">
      <stop
         style="stop-opacity:1;stop-color:#ffffff"
         offset="0"
         id="stop31" />
      <stop
         style="stop-opacity:1;stop-color:#ffffff"
         offset="0.39999968"
         id="stop32" />
      <stop
         style="stop-opacity:1;stop-color:#000000"
         offset="0.5"
         id="stop33" />
      <stop
         style="stop-opacity:1;stop-color:#000000"
         offset="1"
         id="stop34" />
    </radialGradient>
    <clipPath
       clipPathUnits="userSpaceOnUse"
       id="clipPath35">
      <path
         d="M 0,0 H 100 V 100 H 0 Z"
         transform="translate(4.1657641e-6)"
         id="path35" />
    </clipPath>
    <mask
       maskUnits="userSpaceOnUse"
       x="0"
       y="0"
       width="1"
       height="1"
       id="mask38"
       opacity="0.3">
      <path
         d="M 0,0 H 100 V 100 H 0 Z"
         transform="matrix(0.80017333,0,0,-0.80017333,393.59069,68.961907)"
         style="fill:url(#radialGradient41);stroke:none"
         opacity="1"
         id="path41"
         clip-path="url(#clipPath42)" />
    </mask>
    <radialGradient
       fx="50.000641"
       fy="50.000641"
       cx="50.000641"
       cy="50.000641"
       r="50.000641"
       gradientUnits="userSpaceOnUse"
       id="radialGradient41">
      <stop
         style="stop-opacity:1;stop-color:#ffffff"
         offset="0"
         id="stop38" />
      <stop
         style="stop-opacity:1;stop-color:#ffffff"
         offset="0.39999968"
         id="stop39" />
      <stop
         style="stop-opacity:1;stop-color:#000000"
         offset="0.5"
         id="stop40" />
      <stop
         style="stop-opacity:1;stop-color:#000000"
         offset="1"
         id="stop41" />
    </radialGradient>
    <clipPath
       clipPathUnits="userSpaceOnUse"
       id="clipPath42">
      <path
         d="M 0,0 H 100 V 100 H 0 Z"
         transform="translate(4.1657642e-6)"
         id="path42" />
    </clipPath>
    <mask
       maskUnits="userSpaceOnUse"
       x="0"
       y="0"
       width="1"
       height="1"
       id="mask45"
       opacity="0.3">
      <path
         d="M 0,0 H 100 V 100 H 0 Z"
         transform="matrix(0.80017333,0,0,-0.80017333,469.18223,68.961907)"
         style="fill:url(#radialGradient48);stroke:none"
         opacity="1"
         id="path48"
         clip-path="url(#clipPath49)" />
    </mask>
    <radialGradient
       fx="50.000641"
       fy="50.000641"
       cx="50.000641"
       cy="50.000641"
       r="50.000641"
       gradientUnits="userSpaceOnUse"
       id="radialGradient48">
      <stop
         style="stop-opacity:1;stop-color:#ffffff"
         offset="0"
         id="stop45" />
      <stop
         style="stop-opacity:1;stop-color:#ffffff"
         offset="0.39999968"
         id="stop46" />
      <stop
         style="stop-opacity:1;stop-color:#000000"
         offset="0.5"
         id="stop47" />
      <stop
         style="stop-opacity:1;stop-color:#000000"
         offset="1"
         id="stop48" />
    </radialGradient>
    <clipPath
       clipPathUnits="userSpaceOnUse"
       id="clipPath49">
      <path
         d="M 0,0 H 100 V 100 H 0 Z"
         transform="translate(-4.165764e-6)"
         id="path49" />
    </clipPath>
    <mask
       maskUnits="userSpaceOnUse"
       x="0"
       y="0"
       width="1"
       height="1"
       id="mask52"
       opacity="0.3">
      <path
         d="M 0,0 H 100 V 100 H 0 Z"
         transform="matrix(0.80017333,0,0,-0.80017333,544.77372,68.961907)"
         style="fill:url(#radialGradient55);stroke:none"
         opacity="1"
         id="path55"
         clip-path="url(#clipPath56)" />
    </mask>
    <radialGradient
       fx="50.000641"
       fy="50.000641"
       cx="50.000641"
       cy="50.000641"
       r="50.000641"
       gradientUnits="userSpaceOnUse"
       id="radialGradient55">
      <stop
         style="stop-opacity:1;stop-color:#ffffff"
         offset="0"
         id="stop52" />
      <stop
         style="stop-opacity:1;stop-color:#ffffff"
         offset="0.39999968"
         id="stop53" />
      <stop
         style="stop-opacity:1;stop-color:#000000"
         offset="0.5"
         id="stop54" />
      <stop
         style="stop-opacity:1;stop-color:#000000"
         offset="1"
         id="stop55" />
    </radialGradient>
    <clipPath
       clipPathUnits="userSpaceOnUse"
       id="clipPath56">
      <path
         d="M 0,0 H 100 V 100 H 0 Z"
         id="path56" />
    </clipPath>
    <mask
       maskUnits="userSpaceOnUse"
       x="0"
       y="0"
       width="1"
       height="1"
       id="mask59"
       opacity="0.3">
      <path
         d="M 0,0 H 100 V 100 H 0 Z"
         transform="matrix(0.80017333,0,0,-0.80017333,620.36525,68.961907)"
         style="fill:url(#radialGradient62);stroke:none"
         opacity="1"
         id="path62"
         clip-path="url(#clipPath63)" />
    </mask>
    <radialGradient
       fx="50.000641"
       fy="50.000641"
       cx="50.000641"
       cy="50.000641"
       r="50.000641"
       gradientUnits="userSpaceOnUse"
       id="radialGradient62">
      <stop
         style="stop-opacity:1;stop-color:#ffffff"
         offset="0"
         id="stop59" />
      <stop
         style="stop-opacity:1;stop-color:#ffffff"
         offset="0.39999968"
         id="stop60" />
      <stop
         style="stop-opacity:1;stop-color:#000000"
         offset="0.5"
         id="stop61" />
      <stop
         style="stop-opacity:1;stop-color:#000000"
         offset="1"
         id="stop62" />
    </radialGradient>
    <clipPath
       clipPathUnits="userSpaceOnUse"
       id="clipPath63">
      <path
         d="M 0,0 H 100 V 100 H 0 Z"
         transform="translate(4.1657642e-6)"
         id="path63" />
    </clipPath>
    <mask
       maskUnits="userSpaceOnUse"
       x="0"
       y="0"
       width="1"
       height="1"
       id="mask66"
       opacity="0.3">
      <path
         d="M 0,0 H 100 V 100 H 0 Z"
         transform="matrix(0.80017333,0,0,-0.80017333,695.95675,68.961907)"
         style="fill:url(#radialGradient69);stroke:none"
         opacity="1"
         id="path69"
         clip-path="url(#clipPath70)" />
    </mask>
    <radialGradient
       fx="50.000641"
       fy="50.000641"
       cx="50.000641"
       cy="50.000641"
       r="50.000641"
       gradientUnits="userSpaceOnUse"
       id="radialGradient69">
      <stop
         style="stop-opacity:1;stop-color:#ffffff"
         offset="0"
         id="stop66" />
      <stop
         style="stop-opacity:1;stop-color:#ffffff"
         offset="0.39999968"
         id="stop67" />
      <stop
         style="stop-opacity:1;stop-color:#000000"
         offset="0.5"
         id="stop68" />
      <stop
         style="stop-opacity:1;stop-color:#000000"
         offset="1"
         id="stop69" />
    </radialGradient>
    <clipPath
       clipPathUnits="userSpaceOnUse"
       id="clipPath70">
      <path
         d="M 0,0 H 100 V 100 H 0 Z"
         transform="translate(-4.1657644e-6)"
         id="path70" />
    </clipPath>
    <mask
       maskUnits="userSpaceOnUse"
       x="0"
       y="0"
       width="1"
       height="1"
       id="mask73"
       opacity="0.3">
      <path
         d="M 0,0 H 100 V 100 H 0 Z"
         transform="matrix(0.80017333,0,0,-0.80017333,771.54828,68.961907)"
         style="fill:url(#radialGradient76);stroke:none"
         opacity="1"
         id="path76"
         clip-path="url(#clipPath77)" />
    </mask>
    <radialGradient
       fx="50.000641"
       fy="50.000641"
       cx="50.000641"
       cy="50.000641"
       r="50.000641"
       gradientUnits="userSpaceOnUse"
       id="radialGradient76">
      <stop
         style="stop-opacity:1;stop-color:#ffffff"
         offset="0"
         id="stop73" />
      <stop
         style="stop-opacity:1;stop-color:#ffffff"
         offset="0.39999968"
         id="stop74" />
      <stop
         style="stop-opacity:1;stop-color:#000000"
         offset="0.5"
         id="stop75" />
      <stop
         style="stop-opacity:1;stop-color:#000000"
         offset="1"
         id="stop76" />
    </radialGradient>
    <clipPath
       clipPathUnits="userSpaceOnUse"
       id="clipPath77">
      <path
         d="M 0,0 H 100 V 100 H 0 Z"
         id="path77" />
    </clipPath>
  </defs>
  <sodipodi:namedview
     id="namedview1"
     pagecolor="#ffffff"
     bordercolor="#666666"
     borderopacity="1.0"
     inkscape:showpageshadow="2"
     inkscape:pageopacity="0.0"
     inkscape:pagecheckerboard="0"
     inkscape:deskcolor="#d1d1d1">
    <inkscape:page
       x="0"
       y="0"
       inkscape:label="1"
       id="page1"
       width="829.15997"
       height="46.560001"
       margin="0"
       bleed="0" />
  </sodipodi:namedview>
  <g
     id="g1"
     inkscape:groupmode="layer"
     inkscape:label="1">
    <path
       d="M 14.94415,0 C 14.94415,8.25352 8.25352,14.94415 0,14.94415 -8.25352,14.94415 -14.94415,8.25352 -14.94415,0 c 0,-8.25352 6.69063,-14.94415 14.94415,-14.94415 8.25352,0 14.94415,6.69063 14.94415,14.94415 z"
       style="fill:#000000;fill-opacity:0.3;fill-rule:nonzero;stroke:none"
       transform="matrix(1.3334569,0,0,-1.3334569,55.645894,28.949199)"
       opacity="1"
       mask="url(#mask1)"
       id="path6" />
    <path
       id="path7"
       d="M 14.94415,0 C 14.94415,8.25352 8.25352,14.94415 0,14.94415 -8.25352,14.94415 -14.94415,8.25352 -14.94415,0 c 0,-8.25352 6.69063,-14.94415 14.94415,-14.94415 8.25352,0 14.94415,6.69063 14.94415,14.94415 z"
       style="fill:#ffffff;fill-opacity:1;fill-rule:nonzero;stroke:#457b9d;stroke-width:0.79701;stroke-linecap:butt;stroke-linejoin:miter;stroke-miterlimit:10;stroke-dasharray:none;stroke-opacity:1"
       transform="matrix(1.3333333,0,0,-1.3333333,51.862667,25.173333)" />
    <path
       id="path8"
       d="m 3.2690781,0.13924219 c 1.1015625,0 2.7890625,-1.11328125 2.7890625,-4.48828129 0,-1.4179687 -0.3515625,-2.6367187 -0.984375,-3.46875 -0.375,-0.5039062 -0.9726562,-0.9375 -1.7460937,-0.9375 -1.4179688,0 -2.76562503,1.6992188 -2.76562503,4.5351563 0,1.5351562 0.46875003,2.9765625 1.25390623,3.76171874 0.4101563,0.3984375 0.890625,0.59765625 1.453125,0.59765625 z m 0.058594,-8.39062499 c 0.2460937,0 0.46875,0.09375 0.6445312,0.2460937 0.4453125,0.375 0.8320313,1.4648438 0.8320313,3.3867188 0,1.3125 -0.046875,2.2265625 -0.2460938,2.953125 -0.3164062,1.17187499 -1.0195312,1.30078124 -1.2773437,1.30078124 -1.3359375,0 -1.4765625,-2.44921874 -1.4765625,-3.69140624 0,-3.5273438 0.8789062,-4.1953125 1.5234375,-4.1953125 z m 0,0"
       style="fill:#1d3557;fill-opacity:1;fill-rule:nonzero;stroke:none"
       aria-label="0"
       transform="matrix(1.3333333,0,0,1.3333333,47.414667,30.912)" />
    <path
       id="path9"
       d="m -30.72914,0 h 14.98799"
       style="fill:none;stroke:#000000;stroke-width:0.3985;stroke-linecap:butt;stroke-linejoin:miter;stroke-miterlimit:10;stroke-dasharray:none;stroke-opacity:1"
       transform="matrix(1.3333333,0,0,-1.3333333,51.862667,25.173333)" />
    <path
       id="path10"
       d="M -2.07224,2.39104 C -1.69365,0.95639 -0.84999,0.27895 0,0 -0.84999,-0.27895 -1.69365,-0.95639 -2.07224,-2.39104"
       style="fill:none;stroke:#000000;stroke-width:0.3985;stroke-linecap:round;stroke-linejoin:round;stroke-miterlimit:10;stroke-dasharray:none;stroke-opacity:1"
       transform="matrix(1.3333333,0,0,-1.3333333,31.140133,25.173333)" />
    <path
       d="m 71.63779,0 c 0,8.25352 -6.69063,14.94415 -14.94416,14.94415 C 48.4401,14.94415 41.74948,8.25352 41.74948,0 c 0,-8.25352 6.69062,-14.94415 14.94415,-14.94415 8.25353,0 14.94416,6.69063 14.94416,14.94415 z"
       style="fill:#000000;fill-opacity:0.3;fill-rule:nonzero;stroke:none"
       transform="matrix(1.3334569,0,0,-1.3334569,55.638969,28.949199)"
       opacity="1"
       mask="url(#mask10)"
       id="path15" />
    <path
       id="path16"
       d="m 71.63779,0 c 0,8.25352 -6.69063,14.94415 -14.94416,14.94415 C 48.4401,14.94415 41.74948,8.25352 41.74948,0 c 0,-8.25352 6.69062,-14.94415 14.94415,-14.94415 8.25353,0 14.94416,6.69063 14.94416,14.94415 z"
       style="fill:#ffffff;fill-opacity:1;fill-rule:nonzero;stroke:#457b9d;stroke-width:0.79701;stroke-linecap:butt;stroke-linejoin:miter;stroke-miterlimit:10;stroke-dasharray:none;stroke-opacity:1"
       transform="matrix(1.3333333,0,0,-1.3333333,51.862667,25.173333)" />
    <path
       id="path17"
       d="M 4.1375781,-1.7465313 V -6.727 c 0,-0.8554688 0.011719,-1.734375 0.035156,-1.921875 0,-0.070312 -0.023437,-0.070312 -0.082031,-0.070312 -0.7851562,0.4804687 -1.546875,0.84375 -2.8125,1.4296875 0.023437,0.1640625 0.082031,0.3046875 0.2109375,0.3867187 0.6679688,-0.2695312 0.984375,-0.3515625 1.2539063,-0.3515625 0.2460937,0 0.28125,0.3398438 0.28125,0.8320313 v 4.6757812 c 0,1.1835938 -0.3867188,1.2539063 -1.3828125,1.3007813 -0.09375,0.0820313 -0.09375,0.38671875 0,0.46875 0.703125,-0.01171875 1.21875,-0.0234375 1.9921875,-0.0234375 0.6796875,0 1.03125,0.01171875 1.7460937,0.0234375 0.082031,-0.08203125 0.082031,-0.38671875 0,-0.46875 C 4.3719531,-0.492625 4.1375781,-0.5629375 4.1375781,-1.7465313 Z m 0,0"
       style="fill:#1d3557;fill-opacity:1;fill-rule:nonzero;stroke:none"
       aria-label="1"
       transform="matrix(1.3333333,0,0,1.3333333,123.00667,30.969333)" />
    <path
       d="m 128.33142,0 c 0,8.25352 -6.69062,14.94415 -14.94415,14.94415 -8.25354,0 -14.94415,-6.69063 -14.94415,-14.94415 0,-8.25352 6.69061,-14.94415 14.94415,-14.94415 8.25353,0 14.94415,6.69063 14.94415,14.94415 z"
       style="fill:#000000;fill-opacity:0.3;fill-rule:nonzero;stroke:none"
       transform="matrix(1.3334569,0,0,-1.3334569,55.632054,28.949199)"
       opacity="1"
       mask="url(#mask17)"
       id="path22" />
    <path
       id="path23"
       d="m 128.33142,0 c 0,8.25352 -6.69062,14.94415 -14.94415,14.94415 -8.25354,0 -14.94415,-6.69063 -14.94415,-14.94415 0,-8.25352 6.69061,-14.94415 14.94415,-14.94415 8.25353,0 14.94415,6.69063 14.94415,14.94415 z"
       style="fill:#ffffff;fill-opacity:1;fill-rule:nonzero;stroke:#457b9d;stroke-width:0.79701;stroke-linecap:butt;stroke-linejoin:miter;stroke-miterlimit:10;stroke-dasharray:none;stroke-opacity:1"
       transform="matrix(1.3333333,0,0,-1.3333333,51.862667,25.173333)" />
    <path
       id="path24"
       d="m 0.87814844,-6.7146328 c 0,0.3046875 0.26953126,0.5625 0.57421876,0.5625 0.234375,0 0.6679687,-0.2578125 0.6679687,-0.5742188 0,-0.1171875 -0.023437,-0.1992187 -0.058594,-0.3046875 -0.023437,-0.09375 -0.1171875,-0.2226562 -0.1171875,-0.3398437 0,-0.3632813 0.375,-0.8789063 1.4296875,-0.8789063 0.515625,0 1.2421875,0.3632813 1.2421875,1.734375 0,0.9257813 -0.328125,1.6640625 -1.171875,2.53125 l -1.0664063,1.0429688 c -1.40624996,1.4296875 -1.62890621,2.12109374 -1.62890621,2.96484374 0,0 0.72656251,-0.0234375025 1.18359371,-0.0234375025 h 2.5078125 c 0.46875,0 1.125,0.0234375025 1.125,0.0234375025 0.1875,-0.75 0.328125,-1.82812504 0.3398438,-2.26171874 -0.082031,-0.070312 -0.2695313,-0.1054688 -0.4101563,-0.070312 -0.2460937,1.0195312 -0.4921875,1.37109374 -1.0078125,1.37109374 H 1.9328359 c 0,-0.67968754 0.9960938,-1.66406254 1.0664063,-1.73437504 l 1.4414062,-1.3828125 c 0.8203125,-0.796875 1.4414063,-1.4296875 1.4414063,-2.5195312 0,-1.546875 -1.265625,-2.1796875 -2.4257813,-2.1796875 -1.59375,0 -2.57812496,1.1835937 -2.57812496,2.039062 z m 0,0"
       style="fill:#1d3557;fill-opacity:1;fill-rule:nonzero;stroke:none"
       aria-label="2"
       transform="matrix(1.3333333,0,0,1.3333333,198.59867,30.988)" />
    <path
       d="m 185.02505,0 c 0,8.25352 -6.69062,14.94415 -14.94415,14.94415 -8.25354,0 -14.94415,-6.69063 -14.94415,-14.94415 0,-8.25352 6.69061,-14.94415 14.94415,-14.94415 8.25353,0 14.94415,6.69063 14.94415,14.94415 z"
       style="fill:#000000;fill-opacity:0.3;fill-rule:nonzero;stroke:none"
       transform="matrix(1.3334569,0,0,-1.3334569,55.625139,28.949199)"
       opacity="1"
       mask="url(#mask24)"
       id="path29" />
    <path
       id="path30"
       d="m 185.02505,0 c 0,8.25352 -6.69062,14.94415 -14.94415,14.94415 -8.25354,0 -14.94415,-6.69063 -14.94415,-14.94415 0,-8.25352 6.69061,-14.94415 14.94415,-14.94415 8.25353,0 14.94415,6.69063 14.94415,14.94415 z"
       style="fill:#ffffff;fill-opacity:1;fill-rule:nonzero;stroke:#457b9d;stroke-width:0.79701;stroke-linecap:butt;stroke-linejoin:miter;stroke-miterlimit:10;stroke-dasharray:none;stroke-opacity:1"
       transform="matrix(1.3333333,0,0,-1.3333333,51.862667,25.173333)" />
    <path
       id="path31"
       d="m 3.0806563,-8.2513828 c 0.6210937,0 1.1953125,0.375 1.1953125,1.2890625 0,0.7265625 -0.8320313,1.828125 -2.25,2.0273437 l 0.070312,0.4570313 c 0.2460937,-0.023437 0.5039062,-0.023437 0.6796875,-0.023437 0.8203125,0 1.8867187,0.2226562 1.8867187,1.8515625 0,1.89843749 -1.2773437,2.28515624 -1.78125,2.28515624 -0.7265625,0 -0.8554687,-0.328125 -1.03125,-0.5859375 C 1.709562,-1.1498198 1.522062,-1.3256011 1.2290933,-1.3256011 c -0.2929688,0 -0.5976563,0.28125 -0.5976563,0.50390629 0,0.57421875 1.2070313,0.9609375 2.0625,0.9609375 1.7109375,0 3.234375,-1.1015625 3.234375,-2.99999999 0,-1.5585938 -1.1835937,-2.1210938 -2.0273437,-2.2617188 L 3.88925,-5.1459141 c 1.171875,-0.5625 1.5,-1.1484375 1.5,-1.9101562 0,-0.4335938 -0.09375,-0.7734375 -0.4453125,-1.1367188 -0.3164062,-0.3164062 -0.8085937,-0.5625 -1.5585937,-0.5625 -2.109375,0 -2.7070313,1.3828125 -2.7070313,1.8515625 0,0.1992188 0.140625,0.4921875 0.4804688,0.4921875 0.5039062,0 0.5625,-0.4804687 0.5625,-0.75 0,-0.9140625 0.984375,-1.0898437 1.359375,-1.0898437 z m 0,0"
       style="fill:#1d3557;fill-opacity:1;fill-rule:nonzero;stroke:none"
       aria-label="3"
       transform="matrix(1.3333333,0,0,1.3333333,274.18933,30.912)" />
    <path
       d="m 241.71869,0 c 0,8.25352 -6.69063,14.94415 -14.94415,14.94415 -8.25354,0 -14.94416,-6.69063 -14.94416,-14.94415 0,-8.25352 6.69062,-14.94415 14.94416,-14.94415 8.25352,0 14.94415,6.69063 14.94415,14.94415 z"
       style="fill:#000000;fill-opacity:0.3;fill-rule:nonzero;stroke:none"
       transform="matrix(1.3334569,0,0,-1.3334569,55.618208,28.949199)"
       opacity="1"
       mask="url(#mask31)"
       id="path36" />
    <path
       id="path37"
       d="m 241.71869,0 c 0,8.25352 -6.69063,14.94415 -14.94415,14.94415 -8.25354,0 -14.94416,-6.69063 -14.94416,-14.94415 0,-8.25352 6.69062,-14.94415 14.94416,-14.94415 8.25352,0 14.94415,6.69063 14.94415,14.94415 z"
       style="fill:#ffffff;fill-opacity:1;fill-rule:nonzero;stroke:#457b9d;stroke-width:0.79701;stroke-linecap:butt;stroke-linejoin:miter;stroke-miterlimit:10;stroke-dasharray:none;stroke-opacity:1"
       transform="matrix(1.3333333,0,0,-1.3333333,51.862667,25.173333)" />
    <path
       id="path38"
       d="M 6.164,-3.1404141 H 4.9804063 v -4.1835937 c 0,-0.7265625 0,-1.2773438 0.023437,-1.3945313 l -0.023437,-0.035156 H 4.523375 c -0.1054687,0 -0.1757812,0.09375 -0.234375,0.1640625 -0.9023437,1.1015625 -2.5664062,3.46875 -3.890625,5.5195312 0.046875,0.2109375 0.12890625,0.5976563 0.5625,0.5976563 h 2.9296875 v 1.3242187 c 0,0.65625004 -0.5507812,0.65625004 -1.1601562,0.70312504 -0.09375,0.0820313 -0.09375,0.38671875 0,0.46875 0.4570312,-0.01171875 1.03125,-0.0234375025 1.6875,-0.0234375025 0.5625,0 1.1015625,0.0117187525 1.5585937,0.0234375025 0.09375,-0.08203125 0.09375,-0.38671875 0,-0.46875 -0.703125,-0.0585938 -0.9960937,-0.0234375 -0.9960937,-0.70312504 v -1.3242187 h 0.984375 c 0.1992187,0 0.421875,-0.2695313 0.421875,-0.4335938 0,-0.1523437 -0.058594,-0.234375 -0.2226563,-0.2343752 z M 3.8905625,-7.2771328 v 4.1367187 H 1.148375 c 0.7265625,-1.171875 1.7460938,-2.7890625 2.7421875,-4.1367187 z m 0,0"
       style="fill:#1d3557;fill-opacity:1;fill-rule:nonzero;stroke:none"
       aria-label="4"
       transform="matrix(1.3333333,0,0,1.3333333,349.78133,30.988)" />
    <path
       d="m 298.41232,0 c 0,8.25352 -6.69062,14.94415 -14.94415,14.94415 -8.25354,0 -14.94415,-6.69063 -14.94415,-14.94415 0,-8.25352 6.69061,-14.94415 14.94415,-14.94415 8.25353,0 14.94415,6.69063 14.94415,14.94415 z"
       style="fill:#000000;fill-opacity:0.3;fill-rule:nonzero;stroke:none"
       transform="matrix(1.3334569,0,0,-1.3334569,55.61128,28.949199)"
       opacity="1"
       mask="url(#mask38)"
       id="path43" />
    <path
       id="path44"
       d="m 298.41232,0 c 0,8.25352 -6.69062,14.94415 -14.94415,14.94415 -8.25354,0 -14.94415,-6.69063 -14.94415,-14.94415 0,-8.25352 6.69061,-14.94415 14.94415,-14.94415 8.25353,0 14.94415,6.69063 14.94415,14.94415 z"
       style="fill:#ffffff;fill-opacity:1;fill-rule:nonzero;stroke:#457b9d;stroke-width:0.79701;stroke-linecap:butt;stroke-linejoin:miter;stroke-miterlimit:10;stroke-dasharray:none;stroke-opacity:1"
       transform="matrix(1.3333333,0,0,-1.3333333,51.862667,25.173333)" />
    <path
       id="path45"
       d="m 4.5715625,-2.7084141 c 0,1.359375 -0.7148437,2.36718754 -1.5703125,2.36718754 -0.5507812,0 -0.7382812,-0.36328125 -0.9492187,-0.64453125 -0.1875,-0.24609379 -0.4335938,-0.46874999 -0.7265625,-0.46874999 -0.28125,0 -0.5507813,0.2460937 -0.5507813,0.53906249 0,0.5859375 1.21875,1.06640625 2.0390625,1.06640625 1.78125,0 3.0351563,-1.31250004 3.0351563,-3.11718754 0,-1.3945312 -0.9609375,-2.6484375 -2.5664063,-2.6484375 -0.609375,0 -1.1484375,0.1289063 -1.40625,0.234375 l 0.2929688,-2.390625 c 0.5273437,0.046875 0.984375,0.1289063 1.6757812,0.1289063 0.4335938,0 0.9140625,-0.035156 1.5117188,-0.09375 l 0.2226562,-0.9726563 -0.09375,-0.058594 c -0.8203125,0.082031 -1.59375,0.1640625 -2.3554687,0.1640625 -0.5273438,0 -1.0546875,-0.035156 -1.546875,-0.082031 l -0.4921875,4.1367188 c 0.7617187,-0.28125 1.3007812,-0.3398438 1.8164062,-0.3398438 0.9375,0 1.6640625,0.609375 1.6640625,2.1796875 z m 0,0"
       style="fill:#1d3557;fill-opacity:1;fill-rule:nonzero;stroke:none"
       aria-label="5"
       transform="matrix(1.3333333,0,0,1.3333333,425.37333,30.912)" />
    <path
       d="m 355.10596,0 c 0,8.25352 -6.69063,14.94415 -14.94416,14.94415 -8.25354,0 -14.94415,-6.69063 -14.94415,-14.94415 0,-8.25352 6.69061,-14.94415 14.94415,-14.94415 8.25353,0 14.94416,6.69063 14.94416,14.94415 z"
       style="fill:#000000;fill-opacity:0.3;fill-rule:nonzero;stroke:none"
       transform="matrix(1.3334569,0,0,-1.3334569,55.604366,28.949199)"
       opacity="1"
       mask="url(#mask45)"
       id="path50" />
    <path
       id="path51"
       d="m 355.10596,0 c 0,8.25352 -6.69063,14.94415 -14.94416,14.94415 -8.25354,0 -14.94415,-6.69063 -14.94415,-14.94415 0,-8.25352 6.69061,-14.94415 14.94415,-14.94415 8.25353,0 14.94416,6.69063 14.94416,14.94415 z"
       style="fill:#ffffff;fill-opacity:1;fill-rule:nonzero;stroke:#457b9d;stroke-width:0.79701;stroke-linecap:butt;stroke-linejoin:miter;stroke-miterlimit:10;stroke-dasharray:none;stroke-opacity:1"
       transform="matrix(1.3333333,0,0,-1.3333333,51.862667,25.173333)" />
    <path
       id="path52"
       d="m 2.0631328,-4.9232578 c 0.3867188,-1.3007813 1.3125,-2.7539063 3.2109375,-3.46875 0,-0.1757813 -0.046875,-0.3046875 -0.1640625,-0.375 -1.453125,0.4335937 -2.34375,1.03125 -3.140625,1.96875 -0.890625,1.03125 -1.33593749,2.3320312 -1.33593749,3.46875 0,2.91796874 1.65234379,3.48046874 2.75390629,3.48046874 1.875,0 2.6484375,-1.81640624 2.6484375,-3.04687504 0,-1.2421875 -0.65625,-2.34375 -2.6015625,-2.34375 -0.375,0 -0.9375,0.1171875 -1.3710938,0.3164063 z m -0.1289062,0.515625 c 0.4804687,-0.3164063 0.9492187,-0.328125 1.1953125,-0.328125 1.40625,0 1.7226562,1.3828125 1.7226562,2.0976562 0,1.5703125 -0.609375,2.29687504 -1.3125,2.29687504 -0.9023437,0 -1.7226562,-0.4921875 -1.7226562,-2.94140624 0,-0.328125 0.035156,-0.703125 0.1171875,-1.125 z m 0,0"
       style="fill:#1d3557;fill-opacity:1;fill-rule:nonzero;stroke:none"
       aria-label="6"
       transform="matrix(1.3333333,0,0,1.3333333,500.964,30.912)" />
    <path
       d="m 411.79959,0 c 0,8.25352 -6.69061,14.94415 -14.94415,14.94415 -8.25354,0 -14.94415,-6.69063 -14.94415,-14.94415 0,-8.25352 6.69061,-14.94415 14.94415,-14.94415 8.25354,0 14.94415,6.69063 14.94415,14.94415 z"
       style="fill:#000000;fill-opacity:0.3;fill-rule:nonzero;stroke:none"
       transform="matrix(1.3334569,0,0,-1.3334569,55.597443,28.949199)"
       opacity="1"
       mask="url(#mask52)"
       id="path57" />
    <path
       id="path58"
       d="m 411.79959,0 c 0,8.25352 -6.69061,14.94415 -14.94415,14.94415 -8.25354,0 -14.94415,-6.69063 -14.94415,-14.94415 0,-8.25352 6.69061,-14.94415 14.94415,-14.94415 8.25354,0 14.94415,6.69063 14.94415,14.94415 z"
       style="fill:#ffffff;fill-opacity:1;fill-rule:nonzero;stroke:#457b9d;stroke-width:0.79701;stroke-linecap:butt;stroke-linejoin:miter;stroke-miterlimit:10;stroke-dasharray:none;stroke-opacity:1"
       transform="matrix(1.3333333,0,0,-1.3333333,51.862667,25.173333)" />
    <path
       id="path59"
       d="m 2.4365156,-7.675375 h 2.5664063 c -1.1132813,2.7890625 -2.25,5.578125 -3.2226563,7.7578125 l 0.1171875,0.10546875 0.9726563,-0.046875 C 3.6904219,-2.2964688 4.4755781,-4.675375 6.0810469,-8.5894375 l -0.234375,-0.1757813 c -0.234375,0.070312 -0.5507813,0.1640625 -1.1015625,0.1640625 h -2.953125 c -0.4921875,0 -0.4570313,-0.1523437 -0.7148438,-0.2109375 -0.046875,0 -0.058594,0 -0.058594,0.046875 -0.011719,0.6914063 -0.17578127,1.546875 -0.29296877,2.296875 0.1640625,0.046875 0.30468747,0.058594 0.46874997,0.046875 0.3164063,-1.1484375 0.7851563,-1.2539062 1.2421878,-1.2539062 z m 0,0"
       style="fill:#1d3557;fill-opacity:1;fill-rule:nonzero;stroke:none"
       aria-label="7"
       transform="matrix(1.3333333,0,0,1.3333333,576.556,30.921333)" />
    <path
       d="m 468.49323,0 c 0,8.25352 -6.69062,14.94415 -14.94416,14.94415 -8.25354,0 -14.94415,-6.69063 -14.94415,-14.94415 0,-8.25352 6.69061,-14.94415 14.94415,-14.94415 8.25354,0 14.94416,6.69063 14.94416,14.94415 z"
       style="fill:#000000;fill-opacity:0.3;fill-rule:nonzero;stroke:none"
       transform="matrix(1.3334569,0,0,-1.3334569,55.590528,28.949199)"
       opacity="1"
       mask="url(#mask59)"
       id="path64" />
    <path
       id="path65"
       d="m 468.49323,0 c 0,8.25352 -6.69062,14.94415 -14.94416,14.94415 -8.25354,0 -14.94415,-6.69063 -14.94415,-14.94415 0,-8.25352 6.69061,-14.94415 14.94415,-14.94415 8.25354,0 14.94416,6.69063 14.94416,14.94415 z"
       style="fill:#ffffff;fill-opacity:1;fill-rule:nonzero;stroke:#457b9d;stroke-width:0.79701;stroke-linecap:butt;stroke-linejoin:miter;stroke-miterlimit:10;stroke-dasharray:none;stroke-opacity:1"
       transform="matrix(1.3333333,0,0,-1.3333333,51.862667,25.173333)" />
    <path
       id="path66"
       d="m 5.6370469,-6.9623203 c 0,-1.03125 -0.8085938,-1.7929688 -2.203125,-1.7929688 -1.4648438,0 -2.4140625,0.8789063 -2.4140625,1.9804688 0,0.8085937 0.3867187,1.3945312 1.265625,1.9453125 l 0.3632812,0.2226562 c -0.4101562,0.2109375 -0.796875,0.46875 -1.1601562,0.7851563 -0.58593752,0.515625 -0.83203127,1.171875 -0.83203127,1.7226562 0,1.46484379 1.03124997,2.23828129 2.55468747,2.23828129 1.8867188,0 2.8007813,-1.37109379 2.8007813,-2.46093749 0,-0.8320313 -0.3632813,-1.5703125 -1.125,-2.0273438 L 3.8675156,-4.9701328 c 0.6796875,-0.328125 1.7695313,-1.0664063 1.7695313,-1.9921875 z m -2.390625,6.59765624 c -0.6445313,0 -1.6289063,-0.4453125 -1.6289063,-1.73437504 0,-0.421875 0.1875,-1.4296875 1.4179688,-2.25 l 0.6796875,0.3984375 c 0.890625,0.5507813 1.2539062,1.21875 1.2539062,1.9101563 0,1.44140624 -1.078125,1.67578124 -1.7226562,1.67578124 z M 3.3518906,-8.2513828 c 0.9375,0 1.2773438,0.6210937 1.2773438,1.2773437 0,0.7734375 -0.7617188,1.4179688 -1.1484375,1.7109375 L 3.0354844,-5.5326328 C 2.1331406,-6.1302891 2.0393906,-6.5990391 2.0393906,-7.0443516 c 0,-0.65625 0.4570313,-1.2070312 1.3125,-1.2070312 z m 0,0"
       style="fill:#1d3557;fill-opacity:1;fill-rule:nonzero;stroke:none"
       aria-label="8"
       transform="matrix(1.3333333,0,0,1.3333333,652.148,30.912)" />
    <path
       d="m 525.18686,0 c 0,8.25352 -6.69061,14.94415 -14.94416,14.94415 -8.25353,0 -14.94415,-6.69063 -14.94415,-14.94415 0,-8.25352 6.69062,-14.94415 14.94415,-14.94415 8.25355,0 14.94416,6.69063 14.94416,14.94415 z"
       style="fill:#000000;fill-opacity:0.3;fill-rule:nonzero;stroke:none"
       transform="matrix(1.3334569,0,0,-1.3334569,55.583621,28.949199)"
       opacity="1"
       mask="url(#mask66)"
       id="path71" />
    <path
       id="path72"
       d="m 525.18686,0 c 0,8.25352 -6.69061,14.94415 -14.94416,14.94415 -8.25353,0 -14.94415,-6.69063 -14.94415,-14.94415 0,-8.25352 6.69062,-14.94415 14.94415,-14.94415 8.25355,0 14.94416,6.69063 14.94416,14.94415 z"
       style="fill:#ffffff;fill-opacity:1;fill-rule:nonzero;stroke:#457b9d;stroke-width:0.79701;stroke-linecap:butt;stroke-linejoin:miter;stroke-miterlimit:10;stroke-dasharray:none;stroke-opacity:1"
       transform="matrix(1.3333333,0,0,-1.3333333,51.862667,25.173333)" />
    <path
       id="path73"
       d="m 4.6872109,-3.6670703 c -0.3867187,1.3007812 -1.3007812,2.75390624 -3.2109375,3.46874999 0,0.17578125 0.058594,0.3046875 0.1757813,0.375 1.4414062,-0.43359375 2.3320312,-1.03125 3.140625,-1.96874999 0.890625,-1.03125 1.3359375,-2.34375 1.3359375,-3.46875 0,-2.9179688 -1.6523438,-3.4921875 -2.7539063,-3.4921875 -1.8867187,0 -2.66015621,1.828125 -2.66015621,3.0585937 0,1.2304688 0.66796871,2.34375 2.61328121,2.34375 0.375,0 0.9375,-0.1171875 1.359375,-0.3164062 z m 0.1289063,-0.515625 c -0.46875,0.3164062 -0.9492188,0.328125 -1.1835938,0.328125 -1.40625,0 -1.7226562,-1.3828125 -1.7226562,-2.0976563 0,-1.5820312 0.5976562,-2.296875 1.3007812,-2.296875 0.9023438,0 1.7226563,0.4921875 1.7226563,2.9414063 0,0.3164062 -0.023437,0.703125 -0.1171875,1.125 z m 0,0"
       style="fill:#1d3557;fill-opacity:1;fill-rule:nonzero;stroke:none"
       aria-label="9"
       transform="matrix(1.3333333,0,0,1.3333333,727.73867,30.893333)" />
    <path
       d="m 581.8805,0 c 0,8.25352 -6.69062,14.94415 -14.94416,14.94415 -8.25354,0 -14.94415,-6.69063 -14.94415,-14.94415 0,-8.25352 6.69061,-14.94415 14.94415,-14.94415 8.25354,0 14.94416,6.69063 14.94416,14.94415 z"
       style="fill:#000000;fill-opacity:0.3;fill-rule:nonzero;stroke:none"
       transform="matrix(1.3334569,0,0,-1.3334569,55.576698,28.949199)"
       opacity="1"
       mask="url(#mask73)"
       id="path78" />
    <path
       id="path79"
       d="m 581.8805,0 c 0,8.25352 -6.69062,14.94415 -14.94416,14.94415 -8.25354,0 -14.94415,-6.69063 -14.94415,-14.94415 0,-8.25352 6.69061,-14.94415 14.94415,-14.94415 8.25354,0 14.94416,6.69063 14.94416,14.94415 z"
       style="fill:#a8dadc;fill-opacity:1;fill-rule:nonzero;stroke:#457b9d;stroke-width:2.19182;stroke-linecap:butt;stroke-linejoin:miter;stroke-miterlimit:10;stroke-dasharray:none;stroke-opacity:1"
       transform="matrix(1.3333333,0,0,-1.3333333,51.862667,25.173333)" />
    <path
       id="path80"
       d="m 581.8805,0 c 0,8.25352 -6.69062,14.94415 -14.94416,14.94415 -8.25354,0 -14.94415,-6.69063 -14.94415,-14.94415 0,-8.25352 6.69061,-14.94415 14.94415,-14.94415 8.25354,0 14.94416,6.69063 14.94416,14.94415 z"
       style="fill:none;stroke:#ffffff;stroke-width:0.59776;stroke-linecap:butt;stroke-linejoin:miter;stroke-miterlimit:10;stroke-dasharray:none;stroke-opacity:1"
       transform="matrix(1.3333333,0,0,-1.3333333,51.862667,25.173333)" />
    <path
       id="path81"
       d="m 4.1368281,-1.7474766 v -4.9804687 c 0,-0.8554688 0.011719,-1.734375 0.035156,-1.921875 0,-0.070312 -0.023437,-0.070312 -0.082031,-0.070312 -0.7851562,0.4804687 -1.546875,0.84375 -2.8125,1.4296875 0.023437,0.1640625 0.082031,0.3046875 0.2109375,0.3867187 0.6679688,-0.2695312 0.984375,-0.3515625 1.2539063,-0.3515625 0.2460937,0 0.28125,0.3398438 0.28125,0.8320313 v 4.6757812 c 0,1.18359379 -0.3867188,1.25390629 -1.3828125,1.30078129 -0.09375,0.0820313 -0.09375,0.38671875 0,0.46875 0.703125,-0.01171875 1.21875,-0.0234375 1.9921875,-0.0234375 0.6796875,0 1.03125,0.01171875 1.7460937,0.0234375 0.082031,-0.08203125 0.082031,-0.38671875 0,-0.46875 -1.0078125,-0.046875 -1.2421875,-0.1171875 -1.2421875,-1.30078179 z m 5.803711,1.88671879 c 1.1015629,0 2.7890629,-1.11328125 2.7890629,-4.48828129 0,-1.4179687 -0.351563,-2.6367187 -0.984375,-3.46875 -0.375,-0.5039062 -0.972657,-0.9375 -1.7460942,-0.9375 -1.4179687,0 -2.765625,1.6992188 -2.765625,4.5351563 0,1.5351562 0.46875,2.9765625 1.2539063,3.76171874 0.4101562,0.3984375 0.890625,0.59765625 1.453125,0.59765625 z m 0.058594,-8.39062499 c 0.2460939,0 0.4687499,0.09375 0.6445309,0.2460937 0.445313,0.375 0.832031,1.4648438 0.832031,3.3867188 0,1.3125 -0.04687,2.2265625 -0.246093,2.953125 -0.316407,1.17187499 -1.019532,1.30078124 -1.2773439,1.30078124 -1.3359375,0 -1.4765625,-2.44921874 -1.4765625,-3.69140624 0,-3.5273438 0.8789063,-4.1953125 1.5234375,-4.1953125 z m 0,0"
       style="fill:#1d3557;fill-opacity:1;fill-rule:nonzero;stroke:none"
       aria-label="10"
       transform="matrix(1.3333333,0,0,1.3333333,798.88267,30.912)" />
    <path
       id="path82"
       d="M 15.34265,0 H 38.76071"
       style="fill:none;stroke:#1d3557;stroke-width:0.79701;stroke-linecap:butt;stroke-linejoin:miter;stroke-miterlimit:10;stroke-dasharray:none;stroke-opacity:1"
       transform="matrix(1.3333333,0,0,-1.3333333,51.862667,25.173333)" />
    <path
       id="path83"
       d="M 2.59026,0 -1.55415,2.0722 0,0 -1.55415,-2.0722"
       style="fill:#000000;fill-opacity:1;fill-rule:nonzero;stroke:none"
       transform="matrix(1.3333333,0,0,-1.3333333,103.54361,25.173333)" />
    <path
       id="path84"
       d="m 7.9581797,-3.9379609 c 0,-2.4726563 -1.7109375,-3.9257813 -3.84375,-3.9257813 -2.3203125,0 -3.66796876,1.8398438 -3.66796876,4.1601563 0,2.3554687 1.71093746,3.82031246 3.73828126,3.82031246 1.3242187,0 2.3789062,-0.57421875 3.0351562,-1.49999996 0.4804688,-0.6796875 0.7382813,-1.546875 0.7382813,-2.5546875 z M 3.9620859,-7.4301484 c 1.5703125,0 2.8476563,1.3125 2.8476563,3.7265625 0,2.1328125 -1.0195313,3.38671871 -2.390625,3.38671871 -1.453125,0 -2.8242188,-1.30078121 -2.8242188,-3.59765621 0,-2.5078125 1.1835938,-3.515625 2.3671875,-3.515625 z m 5.2617188,6.71484371 c 0,0.33984375 0.2929687,0.6328125 0.6328125,0.6328125 0.3515628,0 0.6445308,-0.29296875 0.6445308,-0.6328125 0,-0.35156251 -0.292968,-0.63281251 -0.6445308,-0.63281251 -0.3398438,0 -0.6328125,0.28125 -0.6328125,0.63281251 z m 0,-3.56250001 c 0,0.3398438 0.2929687,0.6328125 0.6328125,0.6328125 0.3515628,0 0.6445308,-0.2929687 0.6445308,-0.6328125 0,-0.3515625 -0.292968,-0.6328125 -0.6445308,-0.6328125 -0.3398438,0 -0.6328125,0.28125 -0.6328125,0.6328125 z m 2.4814453,1.828125 c 0,1.21875 0.808594,2.56640626 2.507813,2.56640626 0.761718,0 1.347656,-0.26953125 1.757812,-0.66796875 0.539062,-0.52734371 0.773437,-1.27734371 0.773437,-2.00390621 0,-1.2421875 -0.679687,-2.6953125 -2.507812,-2.6953125 -0.785156,0 -1.429687,0.328125 -1.875,0.84375 -0.433594,0.5039062 -0.65625,1.2070312 -0.65625,1.9570312 z m 2.355469,-2.3789062 c 1.019531,0 1.664062,0.9257812 1.664062,2.6484375 0,1.51171871 -0.785156,1.87499996 -1.347656,1.87499996 -1.242187,0 -1.640625,-1.49999996 -1.640625,-2.42578126 0,-1.03125 0.246094,-2.0976562 1.324219,-2.0976562 z m 5.534179,0.070312 c 0.07031,-0.070312 0.07031,-0.328125 0,-0.3984375 -0.363281,0.011719 -0.773437,0.023437 -1.207031,0.023437 -0.457031,0 -0.773437,-0.011719 -1.089844,-0.023437 -0.07031,0.070312 -0.07031,0.328125 0,0.3984375 0.5625,0.058594 0.691407,0.1757812 0.949219,0.796875 l 1.558594,3.86718746 c 0.08203,0.1640625 0.175781,0.234375 0.292969,0.234375 0.105468,0 0.199218,-0.0703125 0.28125,-0.2578125 l 1.207031,-2.94140626 1.230469,2.96484376 c 0.08203,0.1640625 0.175781,0.234375 0.292968,0.234375 0.105469,0 0.199219,-0.0703125 0.269532,-0.24609375 l 1.570312,-3.79687501 c 0.1875,-0.4804687 0.398438,-0.8203125 1.007813,-0.8554687 0.07031,-0.070312 0.07031,-0.328125 0,-0.3984375 -0.246094,0.011719 -0.503907,0.023437 -0.867188,0.023437 -0.351562,0 -0.855469,-0.011719 -1.21875,-0.023437 -0.07031,0.070312 -0.07031,0.328125 0,0.3984375 0.902344,0.046875 0.785156,0.3984375 0.609375,0.8085937 l -0.996094,2.4960938 c -0.128906,0.2929687 -0.175781,0.2929687 -0.269531,0.046875 l -1.03125,-2.625 c -0.222656,-0.5625 -0.199219,-0.6796875 0.433594,-0.7265625 0.07031,-0.070312 0.07031,-0.328125 0,-0.3984375 -0.351563,0.011719 -0.832031,0.023437 -1.195313,0.023437 -0.292968,0 -0.691406,-0.011719 -1.054687,-0.023437 -0.07031,0.070312 -0.07031,0.328125 0,0.3984375 0.5625,0.046875 0.714844,0.3984375 0.925781,0.9375 l 0.07031,0.1875 -0.832032,2.109375 c -0.164062,0.3984375 -0.1875,0.4101562 -0.339843,0.023437 l -0.960938,-2.4609375 c -0.222656,-0.5742188 -0.210937,-0.7617188 0.363281,-0.796875 z m 0,0"
       style="fill:#05668d;fill-opacity:1;fill-rule:nonzero;stroke:none"
       aria-label="O:ow"
       transform="matrix(1.3333333,0,0,1.3333333,72.268,19.137333)" />
    <path
       id="path85"
       d="M 72.03629,0 H 95.45435"
       style="fill:none;stroke:#1d3557;stroke-width:0.79701;stroke-linecap:butt;stroke-linejoin:miter;stroke-miterlimit:10;stroke-dasharray:none;stroke-opacity:1"
       transform="matrix(1.3333333,0,0,-1.3333333,51.862667,25.173333)" />
    <path
       id="path86"
       d="M 2.59026,0 -1.55415,2.0722 0,0 -1.55415,-2.0722"
       style="fill:#000000;fill-opacity:1;fill-rule:nonzero;stroke:none"
       transform="matrix(1.3333333,0,0,-1.3333333,179.13513,25.173333)" />
    <path
       id="path87"
       d="m 1.8645234,-4.3952891 c -0.011719,-0.3632812 -0.035156,-0.6679687 -0.09375,-0.796875 -0.023437,-0.058594 -0.046875,-0.09375 -0.140625,-0.09375 -0.3398437,0.1289063 -0.64453121,0.2460938 -1.47656246,0.3515625 -0.0234375,0.070312 0,0.2578125 0.0234375,0.328125 0.64453125,0.058594 0.78515625,0.1171875 0.78515625,0.8203125 v 5.0976563 c 0,0.9960937 -0.140625,1.0546875 -0.8671875,1.0898437 -0.0703125,0.070312 -0.0703125,0.328125 0,0.3984375 0.421875,-0.011719 0.8671875,-0.023437 1.33593751,-0.023437 0.4804687,0 1.0546875,0.011719 1.453125,0.023437 0.070312,-0.070312 0.070312,-0.328125 0,-0.3984375 -0.8554688,-0.046875 -0.984375,-0.09375 -0.984375,-1.0898437 V 0.02267969 c 0,-0.15234375 0.046875,-0.140625 0.1640625,-0.09375 0.3046875,0.1171875 0.6679687,0.1875 1.0429687,0.1875 0.6679688,0 1.265625,-0.19921875 1.7578125,-0.66796875 0.5625,-0.55078124 0.890625,-1.28906254 0.890625,-2.26171874 0,-1.265625 -0.9023437,-2.4375 -2.1210937,-2.4375 -0.5507813,0 -1.1601563,0.3632812 -1.640625,0.9023437 -0.070312,0.070312 -0.1171875,0.070312 -0.1289063,-0.046875 z m 0.234375,0.4335938 c 0.3046875,-0.375 0.8554688,-0.7382813 1.2070313,-0.7382813 0.7617187,0 1.4179687,0.8671875 1.4179687,2.2148438 0,0.9726562 -0.3515625,2.20312499 -1.6875,2.20312499 -0.2109375,0 -0.6328125,-0.0703125 -0.84375,-0.2578125 -0.2460937,-0.2109375 -0.2929687,-0.28125 -0.2929687,-0.71484379 v -2.1796875 c 0,-0.2460937 0.046875,-0.3515625 0.1992187,-0.5273437 z m 4.9365235,3.24609374 c 0,0.33984375 0.2929687,0.6328125 0.6328125,0.6328125 0.3515625,0 0.6445312,-0.29296875 0.6445312,-0.6328125 0,-0.35156254 -0.2929687,-0.63281254 -0.6445312,-0.63281254 -0.3398438,0 -0.6328125,0.28125 -0.6328125,0.63281254 z m 0,-3.56250004 c 0,0.3398438 0.2929687,0.6328125 0.6328125,0.6328125 0.3515625,0 0.6445312,-0.2929687 0.6445312,-0.6328125 0,-0.3515625 -0.2929687,-0.6328125 -0.6445312,-0.6328125 -0.3398438,0 -0.6328125,0.28125 -0.6328125,0.6328125 z m 3.8554691,-0.1171875 c -0.01172,-0.3632812 -0.03516,-0.6679687 -0.09375,-0.796875 -0.02344,-0.058594 -0.04687,-0.09375 -0.140625,-0.09375 -0.339844,0.1289063 -0.644532,0.2460938 -1.4765629,0.3515625 -0.023437,0.070312 0,0.2578125 0.023437,0.328125 0.6445313,0.058594 0.7851563,0.1171875 0.7851563,0.8203125 v 5.0976563 c 0,0.9960937 -0.140625,1.0546875 -0.8671875,1.0898437 -0.070312,0.070312 -0.070312,0.328125 0,0.3984375 0.421875,-0.011719 0.8671875,-0.023437 1.3359381,-0.023437 0.480468,0 1.054686,0.011719 1.453125,0.023437 0.07031,-0.070312 0.07031,-0.328125 0,-0.3984375 -0.855469,-0.046875 -0.984375,-0.09375 -0.984375,-1.0898437 V 0.02267969 c 0,-0.15234375 0.04687,-0.140625 0.164061,-0.09375 0.304689,0.1171875 0.667969,0.1875 1.042969,0.1875 0.667969,0 1.265625,-0.19921875 1.757813,-0.66796875 0.5625,-0.55078124 0.890625,-1.28906254 0.890625,-2.26171874 0,-1.265625 -0.902343,-2.4375 -2.121093,-2.4375 -0.550782,0 -1.160157,0.3632812 -1.640625,0.9023437 -0.07031,0.070312 -0.117189,0.070312 -0.128906,-0.046875 z m 0.234375,0.4335938 c 0.304687,-0.375 0.855468,-0.7382813 1.207031,-0.7382813 0.761719,0 1.417969,0.8671875 1.417969,2.2148438 0,0.9726562 -0.351563,2.20312499 -1.6875,2.20312499 -0.210938,0 -0.632813,-0.0703125 -0.84375,-0.2578125 -0.246094,-0.2109375 -0.292969,-0.28125 -0.292969,-0.71484379 v -2.1796875 c 0,-0.2460937 0.04687,-0.3515625 0.199219,-0.5273437 z m 0,0"
       style="fill:#05668d;fill-opacity:1;fill-rule:nonzero;stroke:none"
       aria-label="p:p"
       transform="matrix(1.3333333,0,0,1.3333333,155.096,15.598667)" />
    <path
       id="path88"
       d="m 128.72992,0 h 23.41806"
       style="fill:none;stroke:#1d3557;stroke-width:0.79701;stroke-linecap:butt;stroke-linejoin:miter;stroke-miterlimit:10;stroke-dasharray:none;stroke-opacity:1"
       transform="matrix(1.3333333,0,0,-1.3333333,51.862667,25.173333)" />
    <path
       id="path89"
       d="M 2.59026,0 -1.55415,2.0722 0,0 -1.55415,-2.0722"
       style="fill:#000000;fill-opacity:1;fill-rule:nonzero;stroke:none"
       transform="matrix(1.3333333,0,0,-1.3333333,254.72664,25.173333)" />
    <path
       id="path90"
       d="m 4.6159297,-1.1143047 c -0.4453125,0.45703126 -0.796875,0.64453126 -1.4882813,0.64453126 -0.421875,0 -0.9257812,-0.24609375 -1.3007812,-0.85546876 -0.234375,-0.3984375 -0.3867188,-0.9492187 -0.3867188,-1.640625 l 3.1875,0.023437 c 0.140625,0 0.2226563,-0.070312 0.2226563,-0.1992187 0,-1.0078125 -0.3515625,-2.0859375 -2.015625,-2.0859375 -1.0429688,0 -2.39062501,0.9960937 -2.39062501,2.8125 0,0.6679687 0.1640625,1.3125 0.56250001,1.76953121 0.3984375,0.48046875 0.9609375,0.76171875 1.828125,0.76171875 0.9023437,0 1.546875,-0.421875 2.0273437,-1.04296875 C 4.8268672,-1.0439922 4.7565547,-1.1025859 4.6159297,-1.1143047 Z m -3.140625,-2.2617187 c 0.234375,-1.3476563 1.0664062,-1.453125 1.359375,-1.453125 0.4570312,0 0.984375,0.2460937 0.984375,1.2539062 0,0.1054688 -0.046875,0.1640625 -0.1757813,0.1640625 z m 4.7021484,2.66015621 c 0,0.33984375 0.2929688,0.6328125 0.6328125,0.6328125 0.3515625,0 0.6445313,-0.29296875 0.6445313,-0.6328125 0,-0.35156251 -0.2929688,-0.63281251 -0.6445313,-0.63281251 -0.3398437,0 -0.6328125,0.28125 -0.6328125,0.63281251 z m 0,-3.56250001 c 0,0.3398438 0.2929688,0.6328125 0.6328125,0.6328125 0.3515625,0 0.6445313,-0.2929687 0.6445313,-0.6328125 0,-0.3515625 -0.2929688,-0.6328125 -0.6445313,-0.6328125 -0.3398437,0 -0.6328125,0.28125 -0.6328125,0.6328125 z m 5.4931639,3.70312501 c 0.07031,0.375 0.199219,0.69140625 0.796875,0.69140625 0.457031,0 0.890625,-0.19921875 1.136719,-0.4453125 -0.02344,-0.140625 -0.07031,-0.24609375 -0.199219,-0.31640625 -0.08203,0.0703125 -0.292969,0.1875 -0.445312,0.1875 -0.351563,0 -0.363282,-0.46875 -0.363282,-1.00781251 v -1.7578125 c 0,-1.6992187 -0.925781,-2.0273437 -1.804687,-2.0273437 -0.9726563,0 -1.9687501,0.6445312 -1.9687501,1.3242187 0,0.2929688 0.140625,0.4335938 0.421875,0.4335938 0.3398438,0 0.5625,-0.2460938 0.5625,-0.4101563 0,-0.082031 -0.011719,-0.1640625 -0.035156,-0.2109375 -0.011719,-0.035156 -0.023437,-0.1054687 -0.023437,-0.234375 0,-0.375 0.4921881,-0.5039062 0.9492191,-0.5039062 0.410156,0 0.972656,0.1992187 0.972656,1.546875 0,0.09375 -0.03516,0.140625 -0.07031,0.1523437 l -1.03125,0.2460938 c -1.1484381,0.2929687 -1.9687506,0.9257812 -1.9687506,1.734375 0,0.98437496 0.6679687,1.28906246 1.5000006,1.28906246 0.421875,0 0.785156,-0.09375 1.300781,-0.50390625 l 0.246094,-0.1875 z m 0,-2.21484371 v 1.5820312 c 0,0.1523438 -0.07031,0.23437501 -0.164062,0.30468751 -0.316407,0.2578125 -0.726563,0.52734375 -1.054688,0.52734375 -0.5976561,0 -0.8671873,-0.46875 -0.8671873,-0.84374996 0,-0.5390625 0.2578125,-1.0898438 1.1367183,-1.3125 z m 4.136719,-1.4882813 c -0.28125,-0.4101562 -0.199219,-0.421875 0.339844,-0.4804687 0.07031,-0.070312 0.07031,-0.328125 0,-0.3984375 -0.316407,0.011719 -0.84375,0.023437 -1.207032,0.023437 -0.351562,0 -0.714843,-0.011719 -1.03125,-0.023437 -0.07031,0.070312 -0.07031,0.328125 0,0.3984375 0.410157,0.035156 0.75,0.234375 1.078125,0.7265625 l 1.042969,1.5234375 c 0.05859,0.082031 0.05859,0.1171875 0.01172,0.1757812 l -1.007813,1.2890625 c -0.46875,0.60937501 -0.738281,0.64453126 -1.160156,0.66796876 -0.07031,0.0703125 -0.07031,0.328125 0,0.3984375 0.246094,-0.01171875 0.503906,-0.0234375 0.867188,-0.0234375 0.351562,0 0.691406,0.01171875 1.007812,0.0234375 0.07031,-0.0703125 0.07031,-0.328125 0,-0.3984375 -0.433594,-0.046875 -0.527344,-0.09375 -0.269531,-0.46875 l 0.75,-1.08984376 c 0.105469,-0.140625 0.152344,-0.1289062 0.222656,-0.023437 l 0.691406,0.9492188 c 0.421875,0.57421871 0.222657,0.59765621 -0.152343,0.63281246 -0.07031,0.0703125 -0.07031,0.328125 0,0.3984375 0.351562,-0.01171875 0.75,-0.0234375 1.183593,-0.0234375 0.445313,0 0.773438,0.01171875 1.054688,0.0234375 0.08203,-0.0703125 0.08203,-0.328125 0,-0.3984375 -0.539063,-0.0351563 -0.714844,-0.0703125 -1.195313,-0.74999996 l -1.066406,-1.5117188 c -0.04687,-0.082031 -0.07031,-0.1171875 0,-0.1875 l 0.996094,-1.2773437 c 0.445312,-0.5625 0.726562,-0.6210938 1.160156,-0.65625 0.07031,-0.070312 0.07031,-0.328125 0,-0.3984375 -0.234375,0.011719 -0.515625,0.023437 -0.867187,0.023437 -0.363282,0 -0.691407,-0.011719 -1.007813,-0.023437 -0.07031,0.070312 -0.07031,0.328125 0,0.3984375 0.445313,0.046875 0.574219,0.082031 0.292969,0.4921875 l -0.785156,1.0898437 c -0.08203,0.1171875 -0.128907,0.1054688 -0.222657,-0.023437 z m 0,0"
       style="fill:#05668d;fill-opacity:1;fill-rule:nonzero;stroke:none"
       aria-label="e:ax"
       transform="matrix(1.3333333,0,0,1.3333333,227.84933,19.169333)" />
    <path
       id="path91"
       d="m 185.42355,0 h 23.41806"
       style="fill:none;stroke:#1d3557;stroke-width:0.79701;stroke-linecap:butt;stroke-linejoin:miter;stroke-miterlimit:10;stroke-dasharray:none;stroke-opacity:1"
       transform="matrix(1.3333333,0,0,-1.3333333,51.862667,25.173333)" />
    <path
       id="path92"
       d="M 2.59026,0 -1.55415,2.0722 0,0 -1.55415,-2.0722"
       style="fill:#000000;fill-opacity:1;fill-rule:nonzero;stroke:none"
       transform="matrix(1.3333333,0,0,-1.3333333,330.31815,25.173333)" />
    <path
       id="path93"
       d="m 2.2017422,-4.2776875 c -0.070312,0.082031 -0.1523438,0.1054688 -0.1523438,0 -0.011719,-0.328125 -0.035156,-0.7851562 -0.09375,-0.9140625 -0.023437,-0.058594 -0.046875,-0.09375 -0.140625,-0.09375 -0.3398437,0.1289063 -0.6445312,0.2460938 -1.46484371,0.3515625 -0.0234375,0.070312 0,0.2578125 0.0234375,0.328125 C 1.0181484,-4.5472187 1.1470547,-4.488625 1.1470547,-3.7855 v 2.3320313 c 0,0.9726562 -0.1171875,1.0195312 -0.83203126,1.07812495 -0.0820313,0.0703125 -0.0820313,0.328125 0,0.3984375 0.3515625,-0.01171875 0.83203126,-0.0234375 1.31249996,-0.0234375 0.4804688,0 0.8320313,0.01171875 1.1953125,0.0234375 0.070312,-0.0703125 0.070312,-0.328125 0,-0.3984375 C 2.2134609,-0.4339375 2.0962734,-0.4808125 2.0962734,-1.4534687 v -1.96875 c 0,-0.2460938 0.1054688,-0.3867188 0.1992188,-0.5039063 0.4570312,-0.4335937 0.9960937,-0.703125 1.453125,-0.703125 0.2460937,0 0.4921875,0.1640625 0.6328125,0.4335938 0.1289062,0.234375 0.1523437,0.5625 0.1523437,0.9257812 v 1.8164063 c 0,0.9726562 -0.1289062,1.0195312 -0.75,1.07812495 -0.058594,0.0703125 -0.058594,0.328125 0,0.3984375 0.3632813,-0.01171875 0.75,-0.0234375 1.21875,-0.0234375 0.4804688,0 0.9140625,0.01171875 1.2773438,0.0234375 0.058594,-0.0703125 0.058594,-0.328125 0,-0.3984375 C 5.6001797,-0.4339375 5.4712734,-0.4808125 5.4712734,-1.4534687 v -1.78125 c 0,-0.6679688 -0.046875,-1.2304688 -0.3164062,-1.6054688 -0.2109375,-0.2695312 -0.5742188,-0.4101562 -0.9960938,-0.4101562 -0.5859375,0 -1.2539062,0.1523437 -1.9570312,0.9726562 z m 5.109375,3.5625 c 0,0.33984375 0.2929687,0.6328125 0.6328125,0.6328125 0.3515625,0 0.6445312,-0.29296875 0.6445312,-0.6328125 0,-0.3515625 -0.2929687,-0.6328125 -0.6445312,-0.6328125 -0.3398438,0 -0.6328125,0.28125 -0.6328125,0.6328125 z m 0,-3.5625 c 0,0.3398438 0.2929687,0.6328125 0.6328125,0.6328125 0.3515625,0 0.6445312,-0.2929687 0.6445312,-0.6328125 0,-0.3515625 -0.2929687,-0.6328125 -0.6445312,-0.6328125 -0.3398438,0 -0.6328125,0.28125 -0.6328125,0.6328125 z m 4.1923828,0 c -0.07031,0.082031 -0.152344,0.1054688 -0.152344,0 -0.01172,-0.328125 -0.03516,-0.7851562 -0.09375,-0.9140625 -0.02344,-0.058594 -0.04687,-0.09375 -0.140625,-0.09375 -0.339843,0.1289063 -0.644531,0.2460938 -1.4648435,0.3515625 -0.023437,0.070312 0,0.2578125 0.023437,0.328125 0.6445305,0.058594 0.7734375,0.1171875 0.7734375,0.8203125 v 2.3320313 c 0,0.9726562 -0.117188,1.0195312 -0.8320312,1.07812495 -0.082031,0.0703125 -0.082031,0.328125 0,0.3984375 0.3515625,-0.01171875 0.8320312,-0.0234375 1.3124992,-0.0234375 0.480469,0 0.832032,0.01171875 1.195314,0.0234375 0.07031,-0.0703125 0.07031,-0.328125 0,-0.3984375 C 11.515219,-0.43393755 11.39803,-0.4808125 11.39803,-1.4534687 v -1.96875 c 0,-0.2460938 0.105469,-0.3867188 0.199219,-0.5039063 0.457031,-0.4335937 0.996094,-0.703125 1.453125,-0.703125 0.246094,0 0.492188,0.1640625 0.632813,0.4335938 0.128907,0.234375 0.152343,0.5625 0.152343,0.9257812 v 1.8164063 c 0,0.9726562 -0.128906,1.0195312 -0.75,1.07812495 -0.05859,0.0703125 -0.05859,0.328125 0,0.3984375 0.363282,-0.01171875 0.75,-0.0234375 1.21875,-0.0234375 0.480469,0 0.914064,0.01171875 1.277344,0.0234375 0.05859,-0.0703125 0.05859,-0.328125 0,-0.3984375 C 14.901937,-0.43393755 14.77303,-0.4808125 14.77303,-1.4534687 v -1.78125 c 0,-0.6679688 -0.04687,-1.2304688 -0.316406,-1.6054688 -0.210937,-0.2695312 -0.574219,-0.4101562 -0.996094,-0.4101562 -0.585936,0 -1.253906,0.1523437 -1.95703,0.9726562 z m 0,0"
       style="fill:#05668d;fill-opacity:1;fill-rule:nonzero;stroke:none"
       aria-label="n:n"
       transform="matrix(1.3333333,0,0,1.3333333,305.912,19.297333)" />
    <path
       id="path94"
       d="m 242.11719,0 h 23.41806"
       style="fill:none;stroke:#1d3557;stroke-width:0.79701;stroke-linecap:butt;stroke-linejoin:miter;stroke-miterlimit:10;stroke-dasharray:none;stroke-opacity:1"
       transform="matrix(1.3333333,0,0,-1.3333333,51.862667,25.173333)" />
    <path
       id="path95"
       d="M 2.59026,0 -1.55415,2.0722 0,0 -1.55415,-2.0722"
       style="fill:#000000;fill-opacity:1;fill-rule:nonzero;stroke:none"
       transform="matrix(1.3333333,0,0,-1.3333333,405.90967,25.173333)" />
    <path
       id="path96"
       d="m 3.3860547,-3.8564922 c 1.0078125,0 1.0429687,0.2695313 1.078125,0.8085938 0.082031,0.070312 0.328125,0.070312 0.3984375,0 -0.011719,-0.3046875 -0.023437,-0.6445313 -0.023437,-1.0546875 0,-0.4101563 0.011719,-0.7148438 0.023437,-1.03125 -0.070312,-0.070312 -0.3164063,-0.070312 -0.3984375,0 -0.035156,0.6679687 -0.070312,0.8203125 -1.078125,0.8203125 H 2.2727734 v -2.15625 c 0,-0.6445313 0.140625,-0.7617188 0.6679688,-0.7617188 h 0.5390625 c 1.265625,0 1.5585937,0.4804688 1.828125,1.3007813 0.140625,0 0.2695312,-0.023437 0.375,-0.058594 -0.070312,-0.4921875 -0.2460938,-1.640625 -0.2695313,-1.734375 0,-0.023437 -0.011719,-0.035156 -0.046875,-0.035156 -0.1992187,0.035156 -0.2578125,0.046875 -0.5625,0.046875 h -3.046875 c -0.3867187,0 -1.06640621,-0.011719 -1.54687496,-0.023437 -0.0703125,0.070312 -0.0703125,0.328125 0,0.3984375 0.84374996,0.035156 1.04296876,0.09375 1.04296876,1.0898437 v 4.7929688 c 0,0.98437496 -0.1992188,1.04296871 -1.04296876,1.07812496 -0.0703125,0.0703125 -0.0703125,0.328125 0,0.3984375 0.421875,-0.01171875 1.01953126,-0.0234375 1.55859376,-0.0234375 0.5390625,0 1.125,0.01171875 1.546875,0.0234375 0.070312,-0.0703125 0.070312,-0.328125 0,-0.3984375 -0.84375,-0.0351563 -1.0429688,-0.09375 -1.0429688,-1.07812496 v -2.4023438 z m 3.2431641,3.14062501 c 0,0.33984375 0.2929687,0.6328125 0.6328125,0.6328125 0.3515625,0 0.6445312,-0.29296875 0.6445312,-0.6328125 0,-0.35156251 -0.2929687,-0.63281251 -0.6445312,-0.63281251 -0.3398438,0 -0.6328125,0.28125 -0.6328125,0.63281251 z m 0,-3.56250001 c 0,0.3398438 0.2929687,0.6328125 0.6328125,0.6328125 0.3515625,0 0.6445312,-0.2929687 0.6445312,-0.6328125 0,-0.3515625 -0.2929687,-0.6328125 -0.6445312,-0.6328125 -0.3398438,0 -0.6328125,0.28125 -0.6328125,0.6328125 z m 6.6064452,3.1640625 c -0.445312,0.45703126 -0.796875,0.64453126 -1.488281,0.64453126 -0.421875,0 -0.925781,-0.24609375 -1.300781,-0.85546876 -0.234375,-0.3984375 -0.386719,-0.9492187 -0.386719,-1.640625 l 3.1875,0.023437 c 0.140625,0 0.222656,-0.070312 0.222656,-0.1992187 0,-1.0078125 -0.351562,-2.0859375 -2.015625,-2.0859375 -1.042969,0 -2.3906249,0.9960937 -2.3906249,2.8125 0,0.6679687 0.1640625,1.3125 0.5625,1.76953121 0.3984379,0.48046875 0.9609379,0.76171875 1.8281249,0.76171875 0.902344,0 1.546875,-0.421875 2.027344,-1.04296875 -0.03516,-0.11718751 -0.105469,-0.17578121 -0.246094,-0.18749951 z m -3.140625,-2.2617187 c 0.234375,-1.3476563 1.066406,-1.453125 1.359375,-1.453125 0.457031,0 0.984375,0.2460937 0.984375,1.2539062 0,0.1054688 -0.04687,0.1640625 -0.175781,0.1640625 z m 5.859375,-0.046875 c 0,-0.2460938 0.117188,-0.3867188 0.210938,-0.5039063 0.445312,-0.4335937 1.054687,-0.703125 1.523437,-0.703125 0.246094,0 0.492188,0.1640625 0.632813,0.4335938 0.128906,0.234375 0.152343,0.5625 0.152343,0.9257812 v 1.8164063 c 0,0.97265621 -0.128906,1.01953121 -0.75,1.07812496 -0.05859,0.0703125 -0.05859,0.328125 0,0.3984375 0.339844,-0.01171875 0.75,-0.0234375 1.21875,-0.0234375 0.480469,0 0.878907,0.01171875 1.265625,0.0234375 0.07031,-0.0703125 0.07031,-0.328125 0,-0.3984375 -0.667968,-0.0585938 -0.796875,-0.10546875 -0.796875,-1.07812496 v -1.78125 c 0,-0.6679688 -0.04687,-1.2539063 -0.316406,-1.6054688 -0.210937,-0.2695312 -0.574219,-0.4101562 -0.996094,-0.4101562 -0.585937,0 -1.300781,0.1523437 -2.027343,0.9726562 0,0.011719 -0.01172,0.011719 -0.03516,0.023437 -0.03516,0.046875 -0.09375,0.1171875 -0.09375,-0.023437 l 0.01172,-2.6953125 c 0,-0.7734375 0.04687,-1.2539062 0.04687,-1.2539062 0,-0.082031 -0.04687,-0.1171875 -0.152344,-0.1171875 -0.292968,0.1171875 -1.195312,0.2929687 -1.675781,0.328125 -0.02344,0.09375 0,0.28125 0.07031,0.3515625 0.04687,0 0.08203,0 0.117187,0 0.527344,0.035156 0.65625,0.035156 0.65625,0.984375 v 5.2265625 c 0,0.98437496 -0.140625,1.03124996 -0.84375,1.07812496 -0.07031,0.0703125 -0.07031,0.328125 0,0.3984375 0.398438,-0.01171875 0.84375,-0.0234375 1.324219,-0.0234375 0.445312,0 0.84375,0.01171875 1.183594,0.0234375 0.07031,-0.0703125 0.07031,-0.328125 0,-0.3984375 -0.609375,-0.046875 -0.726563,-0.09375 -0.726563,-1.07812496 z m 0,0"
       style="fill:#05668d;fill-opacity:1;fill-rule:nonzero;stroke:none"
       aria-label="F:eh"
       transform="matrix(1.3333333,0,0,1.3333333,378.42667,19.169333)" />
    <path
       id="path97"
       d="m 298.81082,0 h 23.41806"
       style="fill:none;stroke:#1d3557;stroke-width:0.79701;stroke-linecap:butt;stroke-linejoin:miter;stroke-miterlimit:10;stroke-dasharray:none;stroke-opacity:1"
       transform="matrix(1.3333333,0,0,-1.3333333,51.862667,25.173333)" />
    <path
       id="path98"
       d="M 2.59026,0 -1.55415,2.0722 0,0 -1.55415,-2.0722"
       style="fill:#000000;fill-opacity:1;fill-rule:nonzero;stroke:none"
       transform="matrix(1.3333333,0,0,-1.3333333,481.50117,25.173333)" />
    <g
       id="g98"
       aria-label="𝜖:f"
       transform="matrix(1.3333333,0,0,1.3333333,459.88533,19.201333)">
      <path
         id="path99"
         d="m 3.5635391,-4.7799063 c 0.2929687,0 0.5039062,0.058594 0.703125,0.1640625 0.1171875,0.070312 0.234375,0.1523438 0.328125,0.234375 l 0.234375,-0.2578125 C 4.7705703,-4.7330313 4.6885391,-4.8150625 4.5947891,-4.8970938 4.3018203,-5.1783438 3.9268203,-5.30725 3.3994766,-5.30725 c -0.4921875,0 -1.265625,0.2578125 -1.875,0.7734375 -0.60937504,0.5273437 -1.01953129,1.1953125 -1.19531254,1.9804687 -0.0703125,0.2578125 -0.09375,0.515625 -0.09375,0.7382813 0,0.4453125 0.10546875,0.8203125 0.328125,1.171875 C 0.87994531,-0.151 1.3838516,0.09509375 2.1338516,0.09509375 c 0.4921875,0 0.9609375,-0.140625 1.3828125,-0.41015625 0.2460937,-0.1640625 0.4570312,-0.31640625 0.6210937,-0.50390625 L 4.0088516,-1.0064688 c -0.2226563,0.1757813 -0.4453125,0.30468755 -0.6796875,0.4101563 -0.2695313,0.10546875 -0.515625,0.1640625 -0.796875,0.1640625 -0.46875,0 -0.7734375,-0.1640625 -0.9960938,-0.43359375 C 1.3018203,-1.1470938 1.1963516,-1.5220938 1.1963516,-1.9674063 c 0,-0.1640625 0.011719,-0.328125 0.046875,-0.515625 h 2.5898437 l 0.140625,-0.5273437 h -2.625 c 0.1992188,-0.6210938 0.4921875,-1.1132813 0.8203125,-1.359375 0.4453125,-0.375 0.8789063,-0.4101563 1.21875,-0.4101563 z m 0,0"
         style="fill:#05668d;fill-opacity:1;fill-rule:nonzero;stroke:none" />
      <path
         id="path100"
         d="m 5.9014297,-0.7135 c 0,0.33984375 0.2929687,0.6328125 0.6328125,0.6328125 0.3515625,0 0.6445312,-0.29296875 0.6445312,-0.6328125 0,-0.3515625 -0.2929687,-0.6328125 -0.6445312,-0.6328125 -0.3398438,0 -0.6328125,0.28125 -0.6328125,0.6328125 z m 0,-3.5625 c 0,0.3398437 0.2929687,0.6328125 0.6328125,0.6328125 0.3515625,0 0.6445312,-0.2929688 0.6445312,-0.6328125 0,-0.3515625 -0.2929687,-0.6328125 -0.6445312,-0.6328125 -0.3398438,0 -0.6328125,0.28125 -0.6328125,0.6328125 z m 4.0869141,2.8242187 v -3.2109375 h 1.1015622 c 0.117188,0 0.28125,-0.046875 0.28125,-0.1523437 v -0.234375 c 0,-0.058594 -0.03516,-0.082031 -0.09375,-0.082031 H 9.9883438 V -5.811156 c 0,-1.8398437 0.5390622,-2.1210937 0.9375002,-2.1210937 0.363281,0 0.550781,0.140625 0.714844,0.5625 0.09375,0.2109375 0.234375,0.375 0.480468,0.375 0.199219,0 0.492188,-0.2460938 0.492188,-0.4921875 0,-0.1992188 -0.128906,-0.4101563 -0.386719,-0.609375 -0.304687,-0.2109375 -0.621094,-0.2460938 -1.078125,-0.2460938 -0.996094,0 -2.109375,0.8671875 -2.109375,2.7421875 v 0.46875 H 8.42975 c -0.2109375,0 -0.28125,0.1523438 -0.28125,0.2460938 v 0.1523437 c 0,0.058594 0.011719,0.070312 0.070312,0.070312 h 0.820313 v 3.2109375 c 0,0.98437505 -0.1875,1.03125005 -0.8320312,1.07812505 -0.082031,0.0703125 -0.082031,0.328125 0,0.3984375 0.4101562,-0.01171875 0.8320312,-0.0234375 1.3125,-0.0234375 0.4804692,0 1.0429692,0.01171875 1.4648442,0.0234375 0.07031,-0.0703125 0.07031,-0.328125 0,-0.3984375 -0.925782,-0.046875 -0.9960942,-0.09375 -0.9960942,-1.07812485 z m 0,0"
         style="fill:#05668d;fill-opacity:1;fill-rule:nonzero;stroke:none" />
    </g>
    <path
       id="path101"
       d="m 355.50446,0 h 23.41806"
       style="fill:none;stroke:#1d3557;stroke-width:0.79701;stroke-linecap:butt;stroke-linejoin:miter;stroke-miterlimit:10;stroke-dasharray:none;stroke-opacity:1"
       transform="matrix(1.3333333,0,0,-1.3333333,51.862667,25.173333)" />
    <path
       id="path102"
       d="M 2.59026,0 -1.55415,2.0722 0,0 -1.55415,-2.0722"
       style="fill:#000000;fill-opacity:1;fill-rule:nonzero;stroke:none"
       transform="matrix(1.3333333,0,0,-1.3333333,557.09269,25.173333)" />
    <path
       id="path103"
       d="m 0.57360938,-1.6533672 c 0.046875,0.5859375 0.0820313,1.14843751 0.0820313,1.65234376 0.1171875,-0.0234375 0.24609375,-0.03515625 0.3046875,-0.03515625 0.0820313,0 0.15234372,0 0.23437492,0.0234375 0.3281251,0.08203125 0.6445314,0.12890625 1.0898439,0.12890625 0.6679687,0 1.8984374,-0.31640625 1.8984374,-1.49999996 0,-0.8203125 -0.5859374,-1.2890625 -1.3945312,-1.59375 -0.7265625,-0.2695313 -1.1953125,-0.4570313 -1.1953125,-1.1132813 0,-0.4921875 0.421875,-0.7617187 0.8320313,-0.7617187 0.2695312,0 0.9609375,0.09375 1.1132812,1.1132812 0.070312,0.070312 0.3046875,0.058594 0.3867188,-0.011719 0.035156,-0.4335938 0.058594,-0.8789063 0.070312,-1.265625 -0.375,-0.070312 -0.9492188,-0.234375 -1.5703125,-0.234375 -0.8789063,0 -1.68750007,0.5742187 -1.68750007,1.3359375 0,0.8789062 0.39843757,1.2539062 1.31250007,1.6289062 0.9960937,0.4101563 1.21875,0.65625 1.21875,1.171875 0,0.58593751 -0.5625,0.84375001 -1.0078125,0.84375001 -0.46875,0 -0.7265625,-0.1640625 -0.8554688,-0.29296875 C 1.1478281,-0.83305469 1.0189219,-1.3603984 0.94860938,-1.6650859 c -0.0820313,-0.070312 -0.3046875,-0.058594 -0.375,0.011719 z m 4.92187502,0.93750001 c 0,0.33984375 0.2929687,0.6328125 0.6328125,0.6328125 0.3515625,0 0.6445312,-0.29296875 0.6445312,-0.6328125 0,-0.35156251 -0.2929687,-0.63281251 -0.6445312,-0.63281251 -0.3398438,0 -0.6328125,0.28125 -0.6328125,0.63281251 z m 0,-3.56250001 c 0,0.3398438 0.2929687,0.6328125 0.6328125,0.6328125 0.3515625,0 0.6445312,-0.2929687 0.6445312,-0.6328125 0,-0.3515625 -0.2929687,-0.6328125 -0.6445312,-0.6328125 -0.3398438,0 -0.6328125,0.28125 -0.6328125,0.6328125 z m 6.6064456,3.1640625 c -0.445313,0.45703126 -0.796875,0.64453126 -1.488282,0.64453126 -0.421875,0 -0.9257808,-0.24609375 -1.3007808,-0.85546876 -0.234375,-0.3984375 -0.3867188,-0.9492187 -0.3867188,-1.640625 l 3.1874996,0.023437 c 0.140625,0 0.222657,-0.070312 0.222657,-0.1992187 0,-1.0078125 -0.351563,-2.0859375 -2.015625,-2.0859375 -1.0429691,0 -2.3906253,0.9960937 -2.3906253,2.8125 0,0.6679687 0.1640625,1.3125 0.5625,1.76953121 0.3984375,0.48046875 0.9609375,0.76171875 1.8281253,0.76171875 0.902343,0 1.546875,-0.421875 2.027343,-1.04296875 C 12.312867,-1.0439922 12.242555,-1.1025859 12.10193,-1.1143047 Z M 8.9613047,-3.3760234 c 0.234375,-1.3476563 1.0664063,-1.453125 1.3593753,-1.453125 0.457031,0 0.984375,0.2460937 0.984375,1.2539062 0,0.1054688 -0.04687,0.1640625 -0.175782,0.1640625 z m 5.8593753,-0.046875 c 0,-0.2460938 0.117187,-0.3867188 0.210937,-0.5039063 0.445313,-0.4335937 1.054688,-0.703125 1.523438,-0.703125 0.246093,0 0.492187,0.1640625 0.632812,0.4335938 0.128906,0.234375 0.152344,0.5625 0.152344,0.9257812 v 1.8164063 c 0,0.97265621 -0.128906,1.01953121 -0.75,1.07812496 -0.05859,0.0703125 -0.05859,0.328125 0,0.3984375 0.339844,-0.01171875 0.75,-0.0234375 1.21875,-0.0234375 0.480469,0 0.878906,0.01171875 1.265625,0.0234375 0.07031,-0.0703125 0.07031,-0.328125 0,-0.3984375 -0.667969,-0.0585938 -0.796875,-0.10546875 -0.796875,-1.07812496 v -1.78125 c 0,-0.6679688 -0.04687,-1.2539063 -0.316406,-1.6054688 -0.210938,-0.2695312 -0.574219,-0.4101562 -0.996094,-0.4101562 -0.585938,0 -1.300781,0.1523437 -2.027344,0.9726562 0,0.011719 -0.01172,0.011719 -0.03516,0.023437 -0.03516,0.046875 -0.09375,0.1171875 -0.09375,-0.023437 l 0.01172,-2.6953125 c 0,-0.7734375 0.04687,-1.2539062 0.04687,-1.2539062 0,-0.082031 -0.04687,-0.1171875 -0.152344,-0.1171875 -0.292969,0.1171875 -1.195313,0.2929687 -1.675781,0.328125 -0.02344,0.09375 0,0.28125 0.07031,0.3515625 0.04687,0 0.08203,0 0.117188,0 0.527343,0.035156 0.65625,0.035156 0.65625,0.984375 v 5.2265625 c 0,0.98437496 -0.140625,1.03124996 -0.84375,1.07812496 -0.07031,0.0703125 -0.07031,0.328125 0,0.3984375 0.398437,-0.01171875 0.84375,-0.0234375 1.324218,-0.0234375 0.445313,0 0.84375,0.01171875 1.183594,0.0234375 0.07031,-0.0703125 0.07031,-0.328125 0,-0.3984375 -0.609375,-0.046875 -0.726562,-0.09375 -0.726562,-1.07812496 z m 0,0"
       style="fill:#05668d;fill-opacity:1;fill-rule:nonzero;stroke:none"
       aria-label="s:eh"
       transform="matrix(1.3333333,0,0,1.3333333,530.368,19.169333)" />
    <path
       id="path104"
       d="m 412.19809,0 h 23.41806"
       style="fill:none;stroke:#1d3557;stroke-width:0.79701;stroke-linecap:butt;stroke-linejoin:miter;stroke-miterlimit:10;stroke-dasharray:none;stroke-opacity:1"
       transform="matrix(1.3333333,0,0,-1.3333333,51.862667,25.173333)" />
    <path
       id="path105"
       d="M 2.59026,0 -1.55415,2.0722 0,0 -1.55415,-2.0722"
       style="fill:#000000;fill-opacity:1;fill-rule:nonzero;stroke:none"
       transform="matrix(1.3333333,0,0,-1.3333333,632.6842,25.173333)" />
    <g
       id="g105"
       aria-label="𝜖:s"
       transform="matrix(1.3333333,0,0,1.3333333,610.43067,19.169333)">
      <path
         id="path106"
         d="m 3.5617656,-4.7822734 c 0.2929688,0 0.5039063,0.058594 0.703125,0.1640625 0.1171875,0.070312 0.234375,0.1523437 0.328125,0.234375 l 0.234375,-0.2578125 c -0.058594,-0.09375 -0.140625,-0.1757813 -0.234375,-0.2578125 -0.2929687,-0.28125 -0.6679687,-0.4101563 -1.1953125,-0.4101563 -0.4921875,0 -1.265625,0.2578125 -1.875,0.7734375 -0.60937497,0.5273438 -1.01953122,1.1953125 -1.19531247,1.9804688 -0.0703125,0.2578125 -0.09375,0.515625 -0.09375,0.7382812 0,0.4453125 0.10546875,0.82031251 0.328125,1.17187501 0.31640625,0.4921875 0.82031247,0.73828125 1.57031247,0.73828125 0.4921875,0 0.9609375,-0.140625 1.3828125,-0.41015625 0.2460938,-0.1640625 0.4570313,-0.31640625 0.6210938,-0.50390625 L 4.0070781,-1.0088359 c -0.2226562,0.17578121 -0.4453125,0.30468746 -0.6796875,0.41015621 -0.2695312,0.10546875 -0.515625,0.1640625 -0.796875,0.1640625 -0.46875,0 -0.7734375,-0.1640625 -0.9960937,-0.43359375 C 1.3000469,-1.1494609 1.1945781,-1.5244609 1.1945781,-1.9697734 c 0,-0.1640625 0.011719,-0.328125 0.046875,-0.515625 h 2.5898438 l 0.140625,-0.5273438 h -2.625 c 0.1992187,-0.6210937 0.4921875,-1.1132812 0.8203125,-1.359375 0.4453125,-0.375 0.8789062,-0.4101562 1.21875,-0.4101562 z m 0,0"
         style="fill:#05668d;fill-opacity:1;fill-rule:nonzero;stroke:none" />
      <path
         id="path107"
         d="m 5.8996563,-0.71586719 c 0,0.33984375 0.2929687,0.6328125 0.6328125,0.6328125 0.3515625,0 0.6445312,-0.29296875 0.6445312,-0.6328125 0,-0.35156251 -0.2929687,-0.63281251 -0.6445312,-0.63281251 -0.3398438,0 -0.6328125,0.28125 -0.6328125,0.63281251 z m 0,-3.56250001 c 0,0.3398438 0.2929687,0.6328125 0.6328125,0.6328125 0.3515625,0 0.6445312,-0.2929687 0.6445312,-0.6328125 0,-0.3515625 -0.2929687,-0.6328125 -0.6445312,-0.6328125 -0.3398438,0 -0.6328125,0.28125 -0.6328125,0.6328125 z m 2.5664062,2.625 c 0.046875,0.5859375 0.082031,1.14843751 0.082031,1.65234376 0.1171875,-0.0234375 0.2460937,-0.03515625 0.3046875,-0.03515625 0.082031,0 0.1523437,0 0.234375,0.0234375 0.328125,0.08203125 0.6445312,0.12890625 1.089844,0.12890625 0.667969,0 1.898438,-0.31640625 1.898438,-1.49999996 0,-0.8203125 -0.585938,-1.2890625 -1.394532,-1.59375 -0.7265625,-0.2695313 -1.1953125,-0.4570313 -1.1953125,-1.1132813 0,-0.4921875 0.421875,-0.7617187 0.8320315,-0.7617187 0.269531,0 0.960938,0.09375 1.113281,1.1132812 0.07031,0.070312 0.304688,0.058594 0.386719,-0.011719 0.03516,-0.4335938 0.05859,-0.8789063 0.07031,-1.265625 -0.375,-0.070312 -0.949219,-0.234375 -1.570313,-0.234375 -0.8789065,0 -1.6875003,0.5742187 -1.6875003,1.3359375 0,0.8789062 0.3984375,1.2539062 1.3125,1.6289062 0.9960943,0.4101563 1.2187503,0.65625 1.2187503,1.171875 0,0.58593751 -0.5625,0.84375001 -1.007812,0.84375001 -0.4687508,0 -0.7265633,-0.1640625 -0.8554695,-0.29296875 C 9.0402813,-0.83305469 8.911375,-1.3603984 8.8410625,-1.6650859 c -0.082031,-0.070312 -0.3046875,-0.058594 -0.375,0.011719 z m 0,0"
         style="fill:#05668d;fill-opacity:1;fill-rule:nonzero;stroke:none" />
    </g>
    <path
       id="path108"
       d="m 468.89172,0 h 23.41806"
       style="fill:none;stroke:#1d3557;stroke-width:0.79701;stroke-linecap:butt;stroke-linejoin:miter;stroke-miterlimit:10;stroke-dasharray:none;stroke-opacity:1"
       transform="matrix(1.3333333,0,0,-1.3333333,51.862667,25.173333)" />
    <path
       id="path109"
       d="M 2.59026,0 -1.55415,2.0722 0,0 -1.55415,-2.0722"
       style="fill:#000000;fill-opacity:1;fill-rule:nonzero;stroke:none"
       transform="matrix(1.3333333,0,0,-1.3333333,708.27571,25.173333)" />
    <path
       id="path110"
       d="m 0.51611719,-5.1338359 c -0.1640625,0 -0.2109375,0.1523437 -0.2109375,0.2460937 v 0.1523438 c 0,0.058594 0.0117188,0.070312 0.0585938,0.070312 H 1.0668984 v 3.5976562 c 0,0.85546876 0.3632813,1.18359376 0.9140625,1.18359376 0.5507813,0 1.1484375,-0.2578125 1.6171875,-0.78515625 -0.023437,-0.1171875 -0.09375,-0.1875 -0.2109375,-0.19921875 -0.3164062,0.234375 -0.6679687,0.328125 -0.984375,0.328125 -0.328125,0 -0.3984375,-0.36328125 -0.3984375,-1.10156246 v -3.0234375 h 1.2421875 c 0.1289063,0 0.2929688,-0.046875 0.2929688,-0.1523438 v -0.234375 c 0,-0.058594 -0.035156,-0.082031 -0.09375,-0.082031 H 2.0043984 v -0.4570313 c 0,-0.7851562 0.046875,-1.2539062 0.046875,-1.2539062 0,-0.082031 -0.035156,-0.1171875 -0.09375,-0.1171875 -0.046875,0 -0.1523437,0.046875 -0.2578125,0.1171875 -0.1289062,0.070312 -0.2578125,0.1289062 -0.4101562,0.1640625 -0.140625,0.046875 -0.2578125,0.082031 -0.2578125,0.1640625 0,0.140625 0.035156,0.058594 0.035156,1.3828125 z m 4.09277341,4.41796871 c 0,0.33984375 0.2929688,0.6328125 0.6328125,0.6328125 0.3515625,0 0.6445313,-0.29296875 0.6445313,-0.6328125 0,-0.35156251 -0.2929688,-0.63281251 -0.6445313,-0.63281251 -0.3398437,0 -0.6328125,0.28125 -0.6328125,0.63281251 z m 0,-3.56250001 c 0,0.3398438 0.2929688,0.6328125 0.6328125,0.6328125 0.3515625,0 0.6445313,-0.2929687 0.6445313,-0.6328125 0,-0.3515625 -0.2929688,-0.6328125 -0.6445313,-0.6328125 -0.3398437,0 -0.6328125,0.28125 -0.6328125,0.6328125 z m 2.5048828,-0.8554687 c -0.1640625,0 -0.2109375,0.1523437 -0.2109375,0.2460937 v 0.1523438 c 0,0.058594 0.011719,0.070312 0.058594,0.070312 h 0.703125 v 3.5976562 c 0,0.85546876 0.3632812,1.18359376 0.9140625,1.18359376 0.5507812,0 1.1484375,-0.2578125 1.6171876,-0.78515625 -0.02344,-0.1171875 -0.09375,-0.1875 -0.2109376,-0.19921875 -0.3164063,0.234375 -0.6679688,0.328125 -0.984375,0.328125 -0.328125,0 -0.3984375,-0.36328125 -0.3984375,-1.10156246 v -3.0234375 h 1.2421875 c 0.1289062,0 0.2929686,-0.046875 0.2929686,-0.1523438 v -0.234375 c 0,-0.058594 -0.03516,-0.082031 -0.09375,-0.082031 H 8.6020547 v -0.4570313 c 0,-0.7851562 0.046875,-1.2539062 0.046875,-1.2539062 0,-0.082031 -0.035156,-0.1171875 -0.09375,-0.1171875 -0.046875,0 -0.1523438,0.046875 -0.2578125,0.1171875 -0.1289063,0.070312 -0.2578125,0.1289062 -0.4101563,0.1640625 -0.140625,0.046875 -0.2578125,0.082031 -0.2578125,0.1640625 0,0.140625 0.035156,0.058594 0.035156,1.3828125 z m 0,0"
       style="fill:#05668d;fill-opacity:1;fill-rule:nonzero;stroke:none"
       aria-label="t:t"
       transform="matrix(1.3333333,0,0,1.3333333,687.472,19.169333)" />
    <path
       id="path111"
       d="m 525.58536,0 h 23.11917"
       style="fill:none;stroke:#1d3557;stroke-width:0.79701;stroke-linecap:butt;stroke-linejoin:miter;stroke-miterlimit:10;stroke-dasharray:none;stroke-opacity:1"
       transform="matrix(1.3333333,0,0,-1.3333333,51.862667,25.173333)" />
    <path
       id="path112"
       d="M 2.59026,0 -1.55415,2.0722 0,0 -1.55415,-2.0722"
       style="fill:#000000;fill-opacity:1;fill-rule:nonzero;stroke:none"
       transform="matrix(1.3333333,0,0,-1.3333333,783.46871,25.173333)" />
    <g
       id="g112"
       aria-label="𝜖:iy"
       transform="matrix(1.3333333,0,0,1.3333333,758.25733,15.630667)">
      <path
         id="path113"
         d="m 3.5628594,-4.7825703 c 0.2929687,0 0.5039062,0.058594 0.703125,0.1640625 0.1171875,0.070312 0.234375,0.1523437 0.328125,0.234375 l 0.234375,-0.2578125 c -0.058594,-0.09375 -0.140625,-0.1757813 -0.234375,-0.2578125 -0.2929688,-0.28125 -0.6679688,-0.4101563 -1.1953125,-0.4101563 -0.4921875,0 -1.265625,0.2578125 -1.875,0.7734375 -0.60937502,0.5273438 -1.01953127,1.1953125 -1.19531252,1.9804688 -0.0703125,0.2578125 -0.09375,0.515625 -0.09375,0.7382812 0,0.4453125 0.10546875,0.82031254 0.328125,1.17187504 0.31640625,0.4921875 0.82031252,0.73828125 1.57031252,0.73828125 0.4921875,0 0.9609375,-0.140625 1.3828125,-0.41015625 0.2460937,-0.1640625 0.4570312,-0.31640625 0.6210937,-0.50390625 L 4.0081719,-1.0091328 c -0.2226563,0.17578124 -0.4453125,0.30468749 -0.6796875,0.41015624 -0.2695313,0.10546875 -0.515625,0.1640625 -0.796875,0.1640625 -0.46875,0 -0.7734375,-0.1640625 -0.9960938,-0.43359375 C 1.3011406,-1.1497578 1.1956719,-1.5247578 1.1956719,-1.9700703 c 0,-0.1640625 0.011719,-0.328125 0.046875,-0.515625 h 2.5898437 l 0.140625,-0.5273438 h -2.625 c 0.1992188,-0.6210937 0.4921875,-1.1132812 0.8203125,-1.359375 0.4453125,-0.375 0.8789063,-0.4101562 1.21875,-0.4101562 z m 0,0"
         style="fill:#05668d;fill-opacity:1;fill-rule:nonzero;stroke:none" />
      <path
         id="path114"
         d="m 5.90075,-0.71616406 c 0,0.33984375 0.2929688,0.6328125 0.6328125,0.6328125 0.3515625,0 0.6445313,-0.29296875 0.6445313,-0.6328125 0,-0.35156254 -0.2929688,-0.63281254 -0.6445313,-0.63281254 -0.3398437,0 -0.6328125,0.28125 -0.6328125,0.63281254 z m 0,-3.56250004 c 0,0.3398438 0.2929688,0.6328125 0.6328125,0.6328125 0.3515625,0 0.6445313,-0.2929687 0.6445313,-0.6328125 0,-0.3515625 -0.2929688,-0.6328125 -0.6445313,-0.6328125 -0.3398437,0 -0.6328125,0.28125 -0.6328125,0.6328125 z m 4.157227,2.8242188 v -2.3789063 c 0,-0.5976562 0.04687,-1.3710937 0.04687,-1.3710937 0,-0.046875 -0.05859,-0.082031 -0.1640629,-0.082031 -0.328125,0.1289063 -0.8085938,0.2460938 -1.6289063,0.3515625 -0.023437,0.070312 0,0.2578125 0.023437,0.328125 0.65625,0.058594 0.7734375,0.140625 0.7734375,0.8203125 v 2.3320313 c 0,0.98437499 -0.1289062,1.01953124 -0.8554687,1.07812499 -0.082031,0.0703125 -0.082031,0.328125 0,0.3984375 0.3867187,-0.01171875 0.8554687,-0.0234375 1.3359375,-0.0234375 0.4804689,0 0.9257819,0.01171875 1.3242189,0.0234375 0.07031,-0.0703125 0.07031,-0.328125 0,-0.3984375 -0.726562,-0.046875 -0.855468,-0.09375 -0.855468,-1.07812499 z M 8.9681328,-7.1614766 c 0,0.3164063 0.28125,0.6210938 0.5742188,0.6210938 0.328125,0 0.6210934,-0.3164063 0.6210934,-0.5742188 0,-0.28125 -0.2578122,-0.6210937 -0.5742184,-0.6210937 -0.2929688,0 -0.6210938,0.2929687 -0.6210938,0.5742187 z m 4.5996092,9.0703125 c 0.1875,-0.328125 0.351563,-0.6679687 0.492188,-1.03124996 0.960937,-2.29687504 1.488281,-3.52734374 2.109375,-4.87500004 0.246093,-0.5039062 0.410156,-0.6914062 0.972656,-0.7617187 0.07031,-0.070312 0.07031,-0.328125 0,-0.3984375 -0.234375,0.011719 -0.515625,0.023437 -0.84375,0.023437 -0.363281,0 -0.738281,-0.011719 -1.089844,-0.023437 -0.07031,0.070312 -0.07031,0.328125 0,0.3984375 0.375,0.035156 0.761719,0.1054687 0.574219,0.5390625 l -1.183594,2.7421875 c -0.08203,0.1875 -0.199219,0.2226562 -0.292969,-0.023437 l -1.054687,-2.484375 c -0.222656,-0.5039063 -0.28125,-0.7265625 0.386719,-0.7734375 0.07031,-0.070312 0.07031,-0.328125 0,-0.3984375 -0.445313,0.011719 -0.914063,0.023437 -1.347657,0.023437 -0.410156,0 -0.726562,-0.011719 -0.972656,-0.023437 -0.07031,0.070312 -0.07031,0.328125 0,0.3984375 0.480469,0.058594 0.632813,0.1640625 0.949219,0.9023437 l 1.347656,3.14062504 c 0.105469,0.234375 0.292969,0.78515625 0.164063,1.125 -0.140625,0.38671875 -0.28125,0.72656246 -0.457032,1.10156246 -0.140625,0.234375 -0.304687,0.3398438 -0.597656,0.3398438 -0.175781,0 -0.222656,-0.035156 -0.351562,-0.035156 -0.339844,0 -0.527344,0.3632813 -0.527344,0.515625 0,0.2460938 0.246094,0.4453125 0.5625,0.4453125 0.257812,0 0.726562,-0.1054687 1.160156,-0.8671883 z m 0,0"
         style="fill:#05668d;fill-opacity:1;fill-rule:nonzero;stroke:none" />
    </g>
  </g>
</svg>
